<svg width="1296" height="384" viewBox="0 0 1296 384" fill="none" xmlns="http://www.w3.org/2000/svg">
<rect width="1296" height="384" fill="#0C1C3B"/>
<g clip-path="url(#clip0_58_2)">
<path d="M158.381 200.149L155.019 202.232C153.171 203.378 144.597 208.397 135.969 213.387C109.31 228.804 104.379 232.19 101.829 236.825C99.786 240.536 99.281 247.123 98.888 275.144C98.3845 311.146 99.29 318.496 105.016 324.9C107.742 327.949 155.432 357.105 157.692 357.105C158.072 357.105 158.392 334.077 158.404 305.93C158.417 277.783 158.934 253.957 159.556 252.981C162.027 249.093 169.776 248.036 194.712 248.181C231.068 248.391 230.99 248.336 211.272 259.817C186.891 274.012 183.792 276.201 182.228 280.314C181.429 282.416 180.794 303.743 180.794 328.481C180.794 376.835 181.231 379.518 189.112 379.518C193.256 379.518 276.1 331.523 281.96 325.728C284.037 323.673 286.329 320.435 287.056 318.533C287.78 316.631 288.373 298.612 288.373 278.49C288.373 238.125 288.033 236.341 279.036 229.61C276.365 227.61 269.136 223.122 262.973 219.635C256.809 216.147 249.749 212.116 247.284 210.676C244.819 209.235 232.043 201.853 218.895 194.27C205.746 186.687 194.153 179.802 193.132 178.971C191.702 177.807 191.188 158.114 190.891 93.1745L190.506 8.88728L177.209 16.7705C156.748 28.9016 158.381 20.1548 158.381 117.607V200.149Z" fill="#F2C973"/>
<path d="M197.229 10.4591C197.492 10.4591 197.229 47.4143 197.229 92.5799V174.702L209.556 181.98C216.335 185.983 223.395 190.067 225.245 191.056L228.607 192.852V169.103V145.354L223.392 138.794C216.748 130.436 216.561 124.928 222.665 117.25C228.196 110.289 229.155 106.743 228.299 96.4243C227.775 90.0891 226.633 87.2577 222.89 82.9948C216.703 75.9453 216.813 71.1341 223.377 61.9017C228.159 55.178 228.607 53.6479 228.601 44.0823C228.593 29.8325 226.007 25.9835 210.632 17.3368C203.905 13.5535 198.138 10.4591 197.815 10.4591C197.492 10.4591 197.229 10.4591 197.229 10.4591Z" fill="#CD984C"/>
</g>
<path d="M407.01 222.986C403.578 222.986 400.562 222.648 397.962 221.972C395.414 221.296 393.412 219.892 391.956 217.76C390.24 215.264 389.382 211.468 389.382 206.372V181.412C389.382 177.772 389.798 174.86 390.63 172.676C391.514 170.44 392.84 168.724 394.608 167.528C396.116 166.54 397.884 165.864 399.912 165.5C401.992 165.084 404.41 164.876 407.166 164.876H442.032V173.924H410.442C408.258 173.924 406.568 174.652 405.372 176.108C404.228 177.512 403.656 179.54 403.656 182.192V205.67C403.656 208.79 404.176 210.948 405.216 212.144C406.308 213.34 408.024 213.938 410.364 213.938H428.616V199.976H416.604V190.928H442.812V222.986H407.01ZM485.02 174.002V222.908H470.824V174.002H451.168V164.876H504.754V174.002H485.02ZM552.954 222.908L548.508 208.634H528.306L523.704 222.908H508.494L529.554 164.798H547.026L568.164 222.908H552.954ZM538.524 176.576L531.192 199.586H545.7L538.524 176.576ZM628.294 206.138C628.294 209.102 628.008 211.598 627.436 213.626C626.864 215.602 626.032 217.214 624.94 218.462C623.38 220.282 621.352 221.478 618.856 222.05C616.36 222.622 613.526 222.908 610.354 222.908H574.708V164.876H610.198C613.422 164.876 616.1 165.162 618.232 165.734C620.364 166.254 622.106 166.982 623.458 167.918C624.55 168.698 625.408 169.582 626.032 170.57C626.708 171.558 627.202 172.624 627.514 173.768C627.826 174.912 628.034 176.134 628.138 177.434C628.242 178.682 628.294 179.956 628.294 181.256V206.138ZM614.098 182.036C614.098 179.228 613.63 177.174 612.694 175.874C611.758 174.574 609.86 173.924 607 173.924H588.982V213.86H607.39C609.522 213.86 611.16 213.184 612.304 211.832C613.5 210.428 614.098 208.27 614.098 205.358V182.036ZM692.966 206.606C692.966 209.362 692.706 211.728 692.186 213.704C691.666 215.68 690.808 217.344 689.612 218.696C688.26 220.204 686.414 221.296 684.074 221.972C681.734 222.648 678.77 222.986 675.182 222.986H657.164C653.42 222.986 650.378 222.648 648.038 221.972C645.698 221.296 643.878 220.204 642.578 218.696C641.382 217.344 640.55 215.68 640.082 213.704C639.614 211.728 639.38 209.362 639.38 206.606V181.256C639.38 178.188 639.666 175.614 640.238 173.534C640.81 171.454 641.798 169.764 643.202 168.464C644.554 167.216 646.348 166.306 648.584 165.734C650.872 165.162 653.732 164.876 657.164 164.876H675.182C681.214 164.876 685.582 165.89 688.286 167.918C689.95 169.218 691.146 170.96 691.874 173.144C692.602 175.276 692.966 177.98 692.966 181.256V206.606ZM678.614 182.114C678.614 180.45 678.484 179.098 678.224 178.058C677.964 176.966 677.548 176.134 676.976 175.562C676.456 174.938 675.754 174.522 674.87 174.314C674.038 174.054 673.024 173.924 671.828 173.924H660.518C658.23 173.924 656.514 174.548 655.37 175.796C654.226 177.044 653.654 179.15 653.654 182.114V205.748C653.654 207.256 653.758 208.53 653.966 209.57C654.174 210.61 654.538 211.468 655.058 212.144C655.578 212.768 656.28 213.236 657.164 213.548C658.048 213.808 659.166 213.938 660.518 213.938H671.828C674.272 213.938 676.014 213.392 677.054 212.3C678.094 211.156 678.614 208.972 678.614 205.748V182.114ZM757.407 206.606C757.407 209.362 757.147 211.728 756.627 213.704C756.107 215.68 755.249 217.344 754.053 218.696C752.701 220.204 750.855 221.296 748.515 221.972C746.175 222.648 743.211 222.986 739.623 222.986H721.605C717.861 222.986 714.819 222.648 712.479 221.972C710.139 221.296 708.319 220.204 707.019 218.696C705.823 217.344 704.991 215.68 704.523 213.704C704.055 211.728 703.821 209.362 703.821 206.606V181.256C703.821 178.188 704.107 175.614 704.679 173.534C705.251 171.454 706.239 169.764 707.643 168.464C708.995 167.216 710.789 166.306 713.025 165.734C715.313 165.162 718.173 164.876 721.605 164.876H739.623C745.655 164.876 750.023 165.89 752.727 167.918C754.391 169.218 755.587 170.96 756.315 173.144C757.043 175.276 757.407 177.98 757.407 181.256V206.606ZM743.055 182.114C743.055 180.45 742.925 179.098 742.665 178.058C742.405 176.966 741.989 176.134 741.417 175.562C740.897 174.938 740.195 174.522 739.311 174.314C738.479 174.054 737.465 173.924 736.269 173.924H724.959C722.671 173.924 720.955 174.548 719.811 175.796C718.667 177.044 718.095 179.15 718.095 182.114V205.748C718.095 207.256 718.199 208.53 718.407 209.57C718.615 210.61 718.979 211.468 719.499 212.144C720.019 212.768 720.721 213.236 721.605 213.548C722.489 213.808 723.607 213.938 724.959 213.938H736.269C738.713 213.938 740.455 213.392 741.495 212.3C742.535 211.156 743.055 208.972 743.055 205.748V182.114ZM820.367 223.298C814.959 223.038 810.409 222.05 806.717 220.334C803.077 218.618 800.061 216.564 797.669 214.172C795.537 212.092 793.821 209.83 792.521 207.386C791.221 204.942 790.129 202.55 789.245 200.21H782.459V222.908H768.185V164.876H801.881C804.013 164.876 806.067 165.058 808.043 165.422C810.019 165.734 811.787 166.332 813.347 167.216C815.011 168.152 816.311 169.452 817.247 171.116C818.235 172.728 818.729 174.86 818.729 177.512V187.574C818.729 189.862 818.261 191.916 817.325 193.736C816.389 195.556 815.167 196.934 813.659 197.87C812.463 198.598 811.111 199.144 809.603 199.508C808.147 199.872 806.249 200.106 803.909 200.21C804.481 201.406 805.105 202.628 805.781 203.876C806.509 205.124 807.445 206.32 808.589 207.464C809.889 208.816 811.501 210.09 813.425 211.286C815.349 212.43 817.663 213.418 820.367 214.25V223.298ZM804.533 178.994C804.533 177.434 804.013 176.212 802.973 175.328C801.985 174.392 800.139 173.924 797.435 173.924H782.459V191.162H797.435C799.879 191.162 801.673 190.694 802.817 189.758C803.961 188.822 804.533 187.522 804.533 185.858V178.994ZM879.739 209.102C879.739 211.286 879.349 213.236 878.569 214.952C877.789 216.668 876.723 218.124 875.371 219.32C874.071 220.464 872.563 221.348 870.847 221.972C869.131 222.596 867.103 222.908 864.763 222.908H829.819V213.782H858.445C860.837 213.782 862.605 213.34 863.749 212.456C864.945 211.572 865.543 209.986 865.543 207.698V202.238C865.543 200.938 865.101 199.95 864.217 199.274C863.333 198.546 861.903 198.182 859.927 198.182H842.533C840.245 198.182 838.217 197.896 836.449 197.324C834.681 196.752 833.199 195.816 832.003 194.516C831.119 193.528 830.391 192.332 829.819 190.928C829.299 189.472 829.039 187.756 829.039 185.78V179.072C829.039 176.836 829.403 174.834 830.131 173.066C830.859 171.246 831.977 169.712 833.485 168.464C834.889 167.268 836.631 166.358 838.711 165.734C840.791 165.11 843.235 164.798 846.043 164.798H877.945V173.924H850.333C848.201 173.924 846.485 174.47 845.185 175.562C843.937 176.654 843.313 178.136 843.313 180.008V185.156C843.313 186.664 843.781 187.704 844.717 188.276C845.653 188.796 846.927 189.056 848.539 189.056H864.607C866.895 189.056 868.949 189.29 870.769 189.758C872.641 190.226 874.253 190.98 875.605 192.02C878.361 194.204 879.739 197.324 879.739 201.38V209.102ZM943.876 206.606C943.876 209.362 943.616 211.728 943.096 213.704C942.576 215.68 941.718 217.344 940.522 218.696C939.17 220.204 937.324 221.296 934.984 221.972C932.644 222.648 929.68 222.986 926.092 222.986H908.074C904.33 222.986 901.288 222.648 898.948 221.972C896.608 221.296 894.788 220.204 893.488 218.696C892.292 217.344 891.46 215.68 890.992 213.704C890.524 211.728 890.29 209.362 890.29 206.606V181.256C890.29 178.188 890.576 175.614 891.148 173.534C891.72 171.454 892.708 169.764 894.112 168.464C895.464 167.216 897.258 166.306 899.494 165.734C901.782 165.162 904.642 164.876 908.074 164.876H926.092C932.124 164.876 936.492 165.89 939.196 167.918C940.86 169.218 942.056 170.96 942.784 173.144C943.512 175.276 943.876 177.98 943.876 181.256V206.606ZM929.524 182.114C929.524 180.45 929.394 179.098 929.134 178.058C928.874 176.966 928.458 176.134 927.886 175.562C927.366 174.938 926.664 174.522 925.78 174.314C924.948 174.054 923.934 173.924 922.738 173.924H911.428C909.14 173.924 907.424 174.548 906.28 175.796C905.136 177.044 904.564 179.15 904.564 182.114V205.748C904.564 207.256 904.668 208.53 904.876 209.57C905.084 210.61 905.448 211.468 905.968 212.144C906.488 212.768 907.19 213.236 908.074 213.548C908.958 213.808 910.076 213.938 911.428 213.938H922.738C925.182 213.938 926.924 213.392 927.964 212.3C929.004 211.156 929.524 208.972 929.524 205.748V182.114ZM954.731 222.908V164.876H969.005V213.86H998.567V222.908H954.731ZM1060.8 206.372C1060.8 209.648 1060.44 212.326 1059.71 214.406C1059.03 216.486 1058.02 218.124 1056.67 219.32C1055.16 220.672 1053.26 221.608 1050.97 222.128C1048.69 222.648 1046.01 222.908 1042.94 222.908H1025.08C1021.44 222.908 1018.42 222.57 1016.03 221.894C1013.64 221.166 1011.74 219.97 1010.34 218.306C1008.2 215.81 1007.14 211.832 1007.14 206.372V164.876H1021.57V205.592C1021.57 208.452 1022.06 210.532 1023.05 211.832C1023.62 212.56 1024.35 213.08 1025.23 213.392C1026.17 213.704 1027.26 213.86 1028.51 213.86H1039.59C1040.94 213.86 1042.08 213.678 1043.02 213.314C1044.01 212.95 1044.79 212.274 1045.36 211.286C1046.09 209.986 1046.45 208.088 1046.45 205.592V164.876H1060.8V206.372ZM1102.7 174.002V222.908H1088.5V174.002H1068.85V164.876H1122.43V174.002H1102.7ZM1133.27 222.908V164.876H1147.47V222.908H1133.27ZM1214.9 206.606C1214.9 209.362 1214.64 211.728 1214.12 213.704C1213.6 215.68 1212.74 217.344 1211.54 218.696C1210.19 220.204 1208.34 221.296 1206 221.972C1203.66 222.648 1200.7 222.986 1197.11 222.986H1179.09C1175.35 222.986 1172.31 222.648 1169.97 221.972C1167.63 221.296 1165.81 220.204 1164.51 218.696C1163.31 217.344 1162.48 215.68 1162.01 213.704C1161.54 211.728 1161.31 209.362 1161.31 206.606V181.256C1161.31 178.188 1161.6 175.614 1162.17 173.534C1162.74 171.454 1163.73 169.764 1165.13 168.464C1166.48 167.216 1168.28 166.306 1170.51 165.734C1172.8 165.162 1175.66 164.876 1179.09 164.876H1197.11C1203.14 164.876 1207.51 165.89 1210.22 167.918C1211.88 169.218 1213.08 170.96 1213.8 173.144C1214.53 175.276 1214.9 177.98 1214.9 181.256V206.606ZM1200.54 182.114C1200.54 180.45 1200.41 179.098 1200.15 178.058C1199.89 176.966 1199.48 176.134 1198.91 175.562C1198.39 174.938 1197.68 174.522 1196.8 174.314C1195.97 174.054 1194.95 173.924 1193.76 173.924H1182.45C1180.16 173.924 1178.44 174.548 1177.3 175.796C1176.16 177.044 1175.58 179.15 1175.58 182.114V205.748C1175.58 207.256 1175.69 208.53 1175.9 209.57C1176.1 210.61 1176.47 211.468 1176.99 212.144C1177.51 212.768 1178.21 213.236 1179.09 213.548C1179.98 213.808 1181.1 213.938 1182.45 213.938H1193.76C1196.2 213.938 1197.94 213.392 1198.98 212.3C1200.02 211.156 1200.54 208.972 1200.54 205.748V182.114ZM1263.66 222.986L1239.79 187.262V222.986H1225.75V164.876H1241.43L1265.3 200.522V164.876H1279.34V222.986H1263.66Z" fill="#F7C571"/>
<defs>
<clipPath id="clip0_58_2">
<rect width="384" height="384" fill="white"/>
</clipPath>
</defs>
</svg>
