<svg width="1442" height="384" viewBox="0 0 1442 384" fill="none" xmlns="http://www.w3.org/2000/svg">
<rect width="1442" height="384" fill="#0C1C3B"/>
<g clip-path="url(#clip0_47_2)">
<path d="M158.381 200.149L155.019 202.232C153.171 203.378 144.597 208.397 135.969 213.387C109.31 228.804 104.379 232.19 101.829 236.825C99.786 240.536 99.281 247.123 98.888 275.144C98.3845 311.146 99.29 318.496 105.016 324.9C107.742 327.949 155.432 357.105 157.692 357.105C158.072 357.105 158.392 334.077 158.404 305.93C158.417 277.783 158.934 253.957 159.556 252.981C162.027 249.093 169.776 248.036 194.712 248.181C231.068 248.391 230.99 248.336 211.272 259.817C186.891 274.012 183.792 276.201 182.228 280.314C181.429 282.416 180.794 303.743 180.794 328.481C180.794 376.836 181.231 379.518 189.112 379.518C193.256 379.518 276.1 331.523 281.96 325.728C284.037 323.673 286.329 320.435 287.056 318.533C287.78 316.631 288.373 298.612 288.373 278.49C288.373 238.125 288.033 236.341 279.036 229.61C276.365 227.61 269.136 223.122 262.973 219.635C256.809 216.147 249.749 212.116 247.284 210.676C244.819 209.235 232.043 201.853 218.895 194.27C205.746 186.687 194.153 179.802 193.132 178.971C191.702 177.807 191.188 158.114 190.891 93.1746L190.506 8.8873L177.209 16.7705C156.748 28.9016 158.381 20.1548 158.381 117.607V200.149Z" fill="#F2C973"/>
<path d="M197.229 10.4591C197.492 10.4591 197.229 47.4143 197.229 92.5799V174.702L209.556 181.98C216.335 185.983 223.395 190.067 225.245 191.056L228.607 192.852V169.103V145.354L223.392 138.794C216.748 130.436 216.561 124.928 222.665 117.25C228.196 110.289 229.155 106.743 228.299 96.4243C227.775 90.0891 226.633 87.2577 222.89 82.9948C216.703 75.9453 216.813 71.1341 223.377 61.9017C228.159 55.178 228.607 53.6479 228.601 44.0823C228.593 29.8325 226.007 25.9835 210.632 17.3368C203.905 13.5535 198.138 10.4591 197.815 10.4591C197.492 10.4591 197.229 10.4591 197.229 10.4591Z" fill="#CD984C"/>
</g>
<path d="M407.01 190.986C403.578 190.986 400.562 190.648 397.962 189.972C395.414 189.296 393.412 187.892 391.956 185.76C390.24 183.264 389.382 179.468 389.382 174.372V149.412C389.382 145.772 389.798 142.86 390.63 140.676C391.514 138.44 392.84 136.724 394.608 135.528C396.116 134.54 397.884 133.864 399.912 133.5C401.992 133.084 404.41 132.876 407.166 132.876H442.032V141.924H410.442C408.258 141.924 406.568 142.652 405.372 144.108C404.228 145.512 403.656 147.54 403.656 150.192V173.67C403.656 176.79 404.176 178.948 405.216 180.144C406.308 181.34 408.024 181.938 410.364 181.938H428.616V167.976H416.604V158.928H442.812V190.986H407.01ZM485.02 142.002V190.908H470.824V142.002H451.168V132.876H504.754V142.002H485.02ZM552.954 190.908L548.508 176.634H528.306L523.704 190.908H508.494L529.554 132.798H547.026L568.164 190.908H552.954ZM538.524 144.576L531.192 167.586H545.7L538.524 144.576ZM628.294 174.138C628.294 177.102 628.008 179.598 627.436 181.626C626.864 183.602 626.032 185.214 624.94 186.462C623.38 188.282 621.352 189.478 618.856 190.05C616.36 190.622 613.526 190.908 610.354 190.908H574.708V132.876H610.198C613.422 132.876 616.1 133.162 618.232 133.734C620.364 134.254 622.106 134.982 623.458 135.918C624.55 136.698 625.408 137.582 626.032 138.57C626.708 139.558 627.202 140.624 627.514 141.768C627.826 142.912 628.034 144.134 628.138 145.434C628.242 146.682 628.294 147.956 628.294 149.256V174.138ZM614.098 150.036C614.098 147.228 613.63 145.174 612.694 143.874C611.758 142.574 609.86 141.924 607 141.924H588.982V181.86H607.39C609.522 181.86 611.16 181.184 612.304 179.832C613.5 178.428 614.098 176.27 614.098 173.358V150.036ZM692.966 174.606C692.966 177.362 692.706 179.728 692.186 181.704C691.666 183.68 690.808 185.344 689.612 186.696C688.26 188.204 686.414 189.296 684.074 189.972C681.734 190.648 678.77 190.986 675.182 190.986H657.164C653.42 190.986 650.378 190.648 648.038 189.972C645.698 189.296 643.878 188.204 642.578 186.696C641.382 185.344 640.55 183.68 640.082 181.704C639.614 179.728 639.38 177.362 639.38 174.606V149.256C639.38 146.188 639.666 143.614 640.238 141.534C640.81 139.454 641.798 137.764 643.202 136.464C644.554 135.216 646.348 134.306 648.584 133.734C650.872 133.162 653.732 132.876 657.164 132.876H675.182C681.214 132.876 685.582 133.89 688.286 135.918C689.95 137.218 691.146 138.96 691.874 141.144C692.602 143.276 692.966 145.98 692.966 149.256V174.606ZM678.614 150.114C678.614 148.45 678.484 147.098 678.224 146.058C677.964 144.966 677.548 144.134 676.976 143.562C676.456 142.938 675.754 142.522 674.87 142.314C674.038 142.054 673.024 141.924 671.828 141.924H660.518C658.23 141.924 656.514 142.548 655.37 143.796C654.226 145.044 653.654 147.15 653.654 150.114V173.748C653.654 175.256 653.758 176.53 653.966 177.57C654.174 178.61 654.538 179.468 655.058 180.144C655.578 180.768 656.28 181.236 657.164 181.548C658.048 181.808 659.166 181.938 660.518 181.938H671.828C674.272 181.938 676.014 181.392 677.054 180.3C678.094 179.156 678.614 176.972 678.614 173.748V150.114ZM757.407 174.606C757.407 177.362 757.147 179.728 756.627 181.704C756.107 183.68 755.249 185.344 754.053 186.696C752.701 188.204 750.855 189.296 748.515 189.972C746.175 190.648 743.211 190.986 739.623 190.986H721.605C717.861 190.986 714.819 190.648 712.479 189.972C710.139 189.296 708.319 188.204 707.019 186.696C705.823 185.344 704.991 183.68 704.523 181.704C704.055 179.728 703.821 177.362 703.821 174.606V149.256C703.821 146.188 704.107 143.614 704.679 141.534C705.251 139.454 706.239 137.764 707.643 136.464C708.995 135.216 710.789 134.306 713.025 133.734C715.313 133.162 718.173 132.876 721.605 132.876H739.623C745.655 132.876 750.023 133.89 752.727 135.918C754.391 137.218 755.587 138.96 756.315 141.144C757.043 143.276 757.407 145.98 757.407 149.256V174.606ZM743.055 150.114C743.055 148.45 742.925 147.098 742.665 146.058C742.405 144.966 741.989 144.134 741.417 143.562C740.897 142.938 740.195 142.522 739.311 142.314C738.479 142.054 737.465 141.924 736.269 141.924H724.959C722.671 141.924 720.955 142.548 719.811 143.796C718.667 145.044 718.095 147.15 718.095 150.114V173.748C718.095 175.256 718.199 176.53 718.407 177.57C718.615 178.61 718.979 179.468 719.499 180.144C720.019 180.768 720.721 181.236 721.605 181.548C722.489 181.808 723.607 181.938 724.959 181.938H736.269C738.713 181.938 740.455 181.392 741.495 180.3C742.535 179.156 743.055 176.972 743.055 173.748V150.114ZM820.367 191.298C814.959 191.038 810.409 190.05 806.717 188.334C803.077 186.618 800.061 184.564 797.669 182.172C795.537 180.092 793.821 177.83 792.521 175.386C791.221 172.942 790.129 170.55 789.245 168.21H782.459V190.908H768.185V132.876H801.881C804.013 132.876 806.067 133.058 808.043 133.422C810.019 133.734 811.787 134.332 813.347 135.216C815.011 136.152 816.311 137.452 817.247 139.116C818.235 140.728 818.729 142.86 818.729 145.512V155.574C818.729 157.862 818.261 159.916 817.325 161.736C816.389 163.556 815.167 164.934 813.659 165.87C812.463 166.598 811.111 167.144 809.603 167.508C808.147 167.872 806.249 168.106 803.909 168.21C804.481 169.406 805.105 170.628 805.781 171.876C806.509 173.124 807.445 174.32 808.589 175.464C809.889 176.816 811.501 178.09 813.425 179.286C815.349 180.43 817.663 181.418 820.367 182.25V191.298ZM804.533 146.994C804.533 145.434 804.013 144.212 802.973 143.328C801.985 142.392 800.139 141.924 797.435 141.924H782.459V159.162H797.435C799.879 159.162 801.673 158.694 802.817 157.758C803.961 156.822 804.533 155.522 804.533 153.858V146.994ZM879.739 177.102C879.739 179.286 879.349 181.236 878.569 182.952C877.789 184.668 876.723 186.124 875.371 187.32C874.071 188.464 872.563 189.348 870.847 189.972C869.131 190.596 867.103 190.908 864.763 190.908H829.819V181.782H858.445C860.837 181.782 862.605 181.34 863.749 180.456C864.945 179.572 865.543 177.986 865.543 175.698V170.238C865.543 168.938 865.101 167.95 864.217 167.274C863.333 166.546 861.903 166.182 859.927 166.182H842.533C840.245 166.182 838.217 165.896 836.449 165.324C834.681 164.752 833.199 163.816 832.003 162.516C831.119 161.528 830.391 160.332 829.819 158.928C829.299 157.472 829.039 155.756 829.039 153.78V147.072C829.039 144.836 829.403 142.834 830.131 141.066C830.859 139.246 831.977 137.712 833.485 136.464C834.889 135.268 836.631 134.358 838.711 133.734C840.791 133.11 843.235 132.798 846.043 132.798H877.945V141.924H850.333C848.201 141.924 846.485 142.47 845.185 143.562C843.937 144.654 843.313 146.136 843.313 148.008V153.156C843.313 154.664 843.781 155.704 844.717 156.276C845.653 156.796 846.927 157.056 848.539 157.056H864.607C866.895 157.056 868.949 157.29 870.769 157.758C872.641 158.226 874.253 158.98 875.605 160.02C878.361 162.204 879.739 165.324 879.739 169.38V177.102ZM943.876 174.606C943.876 177.362 943.616 179.728 943.096 181.704C942.576 183.68 941.718 185.344 940.522 186.696C939.17 188.204 937.324 189.296 934.984 189.972C932.644 190.648 929.68 190.986 926.092 190.986H908.074C904.33 190.986 901.288 190.648 898.948 189.972C896.608 189.296 894.788 188.204 893.488 186.696C892.292 185.344 891.46 183.68 890.992 181.704C890.524 179.728 890.29 177.362 890.29 174.606V149.256C890.29 146.188 890.576 143.614 891.148 141.534C891.72 139.454 892.708 137.764 894.112 136.464C895.464 135.216 897.258 134.306 899.494 133.734C901.782 133.162 904.642 132.876 908.074 132.876H926.092C932.124 132.876 936.492 133.89 939.196 135.918C940.86 137.218 942.056 138.96 942.784 141.144C943.512 143.276 943.876 145.98 943.876 149.256V174.606ZM929.524 150.114C929.524 148.45 929.394 147.098 929.134 146.058C928.874 144.966 928.458 144.134 927.886 143.562C927.366 142.938 926.664 142.522 925.78 142.314C924.948 142.054 923.934 141.924 922.738 141.924H911.428C909.14 141.924 907.424 142.548 906.28 143.796C905.136 145.044 904.564 147.15 904.564 150.114V173.748C904.564 175.256 904.668 176.53 904.876 177.57C905.084 178.61 905.448 179.468 905.968 180.144C906.488 180.768 907.19 181.236 908.074 181.548C908.958 181.808 910.076 181.938 911.428 181.938H922.738C925.182 181.938 926.924 181.392 927.964 180.3C929.004 179.156 929.524 176.972 929.524 173.748V150.114ZM954.731 190.908V132.876H969.005V181.86H998.567V190.908H954.731ZM1060.8 174.372C1060.8 177.648 1060.44 180.326 1059.71 182.406C1059.03 184.486 1058.02 186.124 1056.67 187.32C1055.16 188.672 1053.26 189.608 1050.97 190.128C1048.69 190.648 1046.01 190.908 1042.94 190.908H1025.08C1021.44 190.908 1018.42 190.57 1016.03 189.894C1013.64 189.166 1011.74 187.97 1010.34 186.306C1008.2 183.81 1007.14 179.832 1007.14 174.372V132.876H1021.57V173.592C1021.57 176.452 1022.06 178.532 1023.05 179.832C1023.62 180.56 1024.35 181.08 1025.23 181.392C1026.17 181.704 1027.26 181.86 1028.51 181.86H1039.59C1040.94 181.86 1042.08 181.678 1043.02 181.314C1044.01 180.95 1044.79 180.274 1045.36 179.286C1046.09 177.986 1046.45 176.088 1046.45 173.592V132.876H1060.8V174.372ZM1102.7 142.002V190.908H1088.5V142.002H1068.85V132.876H1122.43V142.002H1102.7ZM1133.27 190.908V132.876H1147.47V190.908H1133.27ZM1214.9 174.606C1214.9 177.362 1214.64 179.728 1214.12 181.704C1213.6 183.68 1212.74 185.344 1211.54 186.696C1210.19 188.204 1208.34 189.296 1206 189.972C1203.66 190.648 1200.7 190.986 1197.11 190.986H1179.09C1175.35 190.986 1172.31 190.648 1169.97 189.972C1167.63 189.296 1165.81 188.204 1164.51 186.696C1163.31 185.344 1162.48 183.68 1162.01 181.704C1161.54 179.728 1161.31 177.362 1161.31 174.606V149.256C1161.31 146.188 1161.6 143.614 1162.17 141.534C1162.74 139.454 1163.73 137.764 1165.13 136.464C1166.48 135.216 1168.28 134.306 1170.51 133.734C1172.8 133.162 1175.66 132.876 1179.09 132.876H1197.11C1203.14 132.876 1207.51 133.89 1210.22 135.918C1211.88 137.218 1213.08 138.96 1213.8 141.144C1214.53 143.276 1214.9 145.98 1214.9 149.256V174.606ZM1200.54 150.114C1200.54 148.45 1200.41 147.098 1200.15 146.058C1199.89 144.966 1199.48 144.134 1198.91 143.562C1198.39 142.938 1197.68 142.522 1196.8 142.314C1195.97 142.054 1194.95 141.924 1193.76 141.924H1182.45C1180.16 141.924 1178.44 142.548 1177.3 143.796C1176.16 145.044 1175.58 147.15 1175.58 150.114V173.748C1175.58 175.256 1175.69 176.53 1175.9 177.57C1176.1 178.61 1176.47 179.468 1176.99 180.144C1177.51 180.768 1178.21 181.236 1179.09 181.548C1179.98 181.808 1181.1 181.938 1182.45 181.938H1193.76C1196.2 181.938 1197.94 181.392 1198.98 180.3C1200.02 179.156 1200.54 176.972 1200.54 173.748V150.114ZM1263.66 190.986L1239.79 155.262V190.986H1225.75V132.876H1241.43L1265.3 168.522V132.876H1279.34V190.986H1263.66Z" fill="#F7C571"/>
<path d="M392.836 260.204L387.927 248.88V264H386.389V246H388.32L393.262 257.291L398.204 246H400.135V264H398.596V248.88L393.687 260.204H392.836ZM424.978 246L429.527 264H427.924L426.746 259.353H420.789L419.611 264H418.007L422.556 246H424.978ZM423.767 247.702L421.116 257.978H426.418L423.767 247.702ZM448.963 254.411L456.294 246H458.356L450.534 254.902L458.454 264H456.425L448.963 255.458V264H447.392V246H448.963V254.411ZM475.82 246H477.358V264H475.82V246ZM506.268 246H507.806V264H506.399L498.086 249.895V264H496.548V246H497.595L506.268 260.727V246ZM532.412 247.375C531.539 247.375 530.83 247.462 530.284 247.636C529.739 247.789 529.303 248.04 528.975 248.389C528.67 248.738 528.463 249.185 528.353 249.731C528.244 250.276 528.19 250.931 528.19 251.695V258.862C528.19 259.429 528.244 259.953 528.353 260.433C528.484 260.913 528.703 261.327 529.008 261.676C529.335 262.025 529.772 262.298 530.317 262.495C530.863 262.691 531.561 262.789 532.412 262.789C533.241 262.789 533.917 262.68 534.441 262.462C534.986 262.222 535.412 261.916 535.717 261.545C536.044 261.153 536.263 260.705 536.372 260.204C536.503 259.702 536.568 259.167 536.568 258.6V256.276H534.67V254.902H538.106V264H537.255L536.83 262.331C536.219 263.073 535.51 263.564 534.703 263.804C533.917 264.044 533.153 264.164 532.412 264.164C531.735 264.164 531.048 264.087 530.35 263.935C529.673 263.782 529.063 263.531 528.517 263.182C527.972 262.833 527.524 262.375 527.175 261.807C526.826 261.218 526.652 260.509 526.652 259.68V251.204C526.652 250.113 526.804 249.218 527.11 248.52C527.415 247.822 527.83 247.276 528.353 246.884C528.877 246.491 529.488 246.218 530.186 246.065C530.884 245.913 531.626 245.836 532.412 245.836C533.241 245.836 533.993 245.902 534.67 246.033C535.368 246.142 535.968 246.36 536.47 246.687C536.972 246.993 537.364 247.418 537.648 247.964C537.932 248.509 538.073 249.207 538.073 250.058H536.568C536.459 248.945 536.077 248.225 535.423 247.898C534.768 247.549 533.764 247.375 532.412 247.375ZM587.873 247.244H587.448C587.273 247.244 587.033 247.244 586.728 247.244C586.444 247.222 586.073 247.211 585.615 247.211C585.091 247.211 584.513 247.233 583.88 247.276C583.269 247.32 582.68 247.44 582.113 247.636C581.568 247.833 581.109 248.127 580.738 248.52C580.368 248.891 580.182 249.404 580.182 250.058C580.182 250.516 580.389 250.985 580.804 251.465C581.218 251.924 581.742 252.404 582.375 252.905C583.008 253.407 583.684 253.931 584.404 254.476C585.146 255 585.833 255.545 586.466 256.113C587.098 256.658 587.622 257.236 588.037 257.847C588.451 258.458 588.658 259.08 588.658 259.713C588.658 261.262 588.168 262.396 587.186 263.116C586.204 263.815 584.862 264.164 583.16 264.164C582.658 264.164 582.157 264.131 581.655 264.065C581.218 264.022 580.76 263.956 580.28 263.869C579.8 263.782 579.364 263.651 578.971 263.476V262.233C579.517 262.385 580.149 262.516 580.869 262.625C581.611 262.735 582.331 262.789 583.029 262.789C583.662 262.789 584.229 262.745 584.731 262.658C585.233 262.549 585.658 262.375 586.008 262.135C586.378 261.895 586.651 261.567 586.826 261.153C587.022 260.738 587.12 260.215 587.12 259.582C587.12 259.08 586.913 258.589 586.498 258.109C586.084 257.607 585.56 257.116 584.928 256.636C584.295 256.156 583.608 255.665 582.866 255.164C582.146 254.662 581.469 254.138 580.837 253.593C580.204 253.047 579.68 252.48 579.266 251.891C578.851 251.28 578.644 250.636 578.644 249.96C578.644 249.524 578.72 249.065 578.873 248.585C579.048 248.084 579.342 247.636 579.757 247.244C580.171 246.829 580.738 246.491 581.458 246.229C582.178 245.967 583.084 245.836 584.175 245.836C584.568 245.836 585.102 245.847 585.778 245.869C586.477 245.869 587.175 245.902 587.873 245.967V247.244ZM612.533 264.164C610.897 264.164 609.598 263.771 608.638 262.985C607.678 262.178 607.198 260.902 607.198 259.156V246H608.737V258.895C608.737 260.247 609.009 261.24 609.555 261.873C610.1 262.484 611.093 262.789 612.533 262.789C613.973 262.789 614.966 262.484 615.511 261.873C616.057 261.24 616.329 260.247 616.329 258.895V246H617.868V259.156C617.868 260.902 617.388 262.178 616.428 262.985C615.468 263.771 614.169 264.164 612.533 264.164ZM647.538 252.284C647.538 253.658 647.265 254.727 646.719 255.491C646.174 256.255 645.498 256.8 644.69 257.127L647.538 264H645.868L643.218 257.487C643.108 257.509 642.988 257.52 642.858 257.52C642.727 257.52 642.607 257.52 642.498 257.52H638.57V264H637.032V246H642.858C643.468 246 644.058 246.098 644.625 246.295C645.192 246.491 645.694 246.807 646.13 247.244C646.567 247.658 646.905 248.204 647.145 248.88C647.407 249.535 647.538 250.331 647.538 251.269V252.284ZM645.999 251.236C645.999 250.124 645.716 249.207 645.148 248.487C644.581 247.745 643.588 247.375 642.17 247.375H638.57V256.145H642.17C642.89 256.145 643.49 256.047 643.97 255.851C644.45 255.655 644.843 255.382 645.148 255.033C645.454 254.684 645.672 254.269 645.803 253.789C645.934 253.309 645.999 252.796 645.999 252.251V251.236ZM667.279 247.375V254.476H672.613V255.851H667.279V262.625H673.759V264H665.741V246H673.759V247.375H667.279ZM717.583 264V247.375H713.82V246H722.951V247.375H719.122V264H717.583ZM750.951 264V255.884H742.998V264H741.46V246H742.998V254.509H750.951V246H752.489V264H750.951ZM773.219 247.375V254.476H778.553V255.851H773.219V262.625H779.699V264H771.681V246H779.699V247.375H773.219ZM821.985 254.411L829.316 246H831.378L823.556 254.902L831.476 264H829.447L821.985 255.458V264H820.414V246H821.985V254.411ZM850.38 247.375V254.476H855.714V255.851H850.38V262.625H856.86V264H848.841V246H856.86V247.375H850.38ZM882.733 246H884.467L879.984 257.291V264H878.413V257.225L873.896 246H875.598L879.165 254.967L882.733 246ZM910.263 247.244H909.837C909.663 247.244 909.423 247.244 909.117 247.244C908.834 247.222 908.463 247.211 908.005 247.211C907.481 247.211 906.903 247.233 906.27 247.276C905.659 247.32 905.07 247.44 904.503 247.636C903.957 247.833 903.499 248.127 903.128 248.52C902.757 248.891 902.572 249.404 902.572 250.058C902.572 250.516 902.779 250.985 903.194 251.465C903.608 251.924 904.132 252.404 904.765 252.905C905.397 253.407 906.074 253.931 906.794 254.476C907.536 255 908.223 255.545 908.856 256.113C909.488 256.658 910.012 257.236 910.426 257.847C910.841 258.458 911.048 259.08 911.048 259.713C911.048 261.262 910.557 262.396 909.576 263.116C908.594 263.815 907.252 264.164 905.55 264.164C905.048 264.164 904.546 264.131 904.045 264.065C903.608 264.022 903.15 263.956 902.67 263.869C902.19 263.782 901.754 263.651 901.361 263.476V262.233C901.906 262.385 902.539 262.516 903.259 262.625C904.001 262.735 904.721 262.789 905.419 262.789C906.052 262.789 906.619 262.745 907.121 262.658C907.623 262.549 908.048 262.375 908.397 262.135C908.768 261.895 909.041 261.567 909.216 261.153C909.412 260.738 909.51 260.215 909.51 259.582C909.51 259.08 909.303 258.589 908.888 258.109C908.474 257.607 907.95 257.116 907.317 256.636C906.685 256.156 905.997 255.665 905.256 255.164C904.536 254.662 903.859 254.138 903.226 253.593C902.594 253.047 902.07 252.48 901.656 251.891C901.241 251.28 901.034 250.636 901.034 249.96C901.034 249.524 901.11 249.065 901.263 248.585C901.437 248.084 901.732 247.636 902.146 247.244C902.561 246.829 903.128 246.491 903.848 246.229C904.568 245.967 905.474 245.836 906.565 245.836C906.957 245.836 907.492 245.847 908.168 245.869C908.866 245.869 909.565 245.902 910.263 245.967V247.244ZM957.279 246L961.828 264H960.224L959.046 259.353H953.09L951.912 264H950.308L954.857 246H957.279ZM956.068 247.702L953.417 257.978H958.719L956.068 247.702ZM990.198 252.284C990.198 253.658 989.926 254.727 989.38 255.491C988.835 256.255 988.158 256.8 987.351 257.127L990.198 264H988.529L985.878 257.487C985.769 257.509 985.649 257.52 985.518 257.52C985.388 257.52 985.268 257.52 985.158 257.52H981.231V264H979.693V246H985.518C986.129 246 986.718 246.098 987.286 246.295C987.853 246.491 988.355 246.807 988.791 247.244C989.228 247.658 989.566 248.204 989.806 248.88C990.068 249.535 990.198 250.331 990.198 251.269V252.284ZM988.66 251.236C988.66 250.124 988.377 249.207 987.809 248.487C987.242 247.745 986.249 247.375 984.831 247.375H981.231V256.145H984.831C985.551 256.145 986.151 256.047 986.631 255.851C987.111 255.655 987.504 255.382 987.809 255.033C988.115 254.684 988.333 254.269 988.464 253.789C988.595 253.309 988.66 252.796 988.66 252.251V251.236ZM1009.94 247.375V254.476H1015.27V255.851H1009.94V262.625H1016.42V264H1008.4V246H1016.42V247.375H1009.94ZM1057.14 246H1058.67V264H1057.14V246ZM1087.58 246H1089.12V264H1087.71L1079.4 249.895V264H1077.86V246H1078.91L1087.58 260.727V246ZM1138.18 246H1139.91L1135.43 257.291V264H1133.86V257.225L1129.34 246H1131.04L1134.61 254.967L1138.18 246ZM1162.14 262.789C1163.6 262.767 1164.61 262.495 1165.15 261.971C1165.72 261.447 1166 260.596 1166 259.418V250.385C1166 249.251 1165.72 248.444 1165.15 247.964C1164.58 247.462 1163.57 247.211 1162.11 247.211C1160.69 247.211 1159.71 247.451 1159.16 247.931C1158.62 248.411 1158.34 249.229 1158.34 250.385V259.418C1158.34 260.596 1158.62 261.447 1159.16 261.971C1159.73 262.495 1160.72 262.767 1162.14 262.789ZM1162.17 264.164C1161.5 264.164 1160.83 264.098 1160.18 263.967C1159.54 263.815 1158.98 263.575 1158.48 263.247C1157.97 262.898 1157.57 262.429 1157.26 261.84C1156.96 261.229 1156.81 260.465 1156.81 259.549V249.993C1156.81 248.684 1157.24 247.669 1158.12 246.949C1159.01 246.207 1160.36 245.836 1162.17 245.836C1163.98 245.836 1165.33 246.207 1166.2 246.949C1167.09 247.669 1167.54 248.684 1167.54 249.993V259.549C1167.54 260.465 1167.39 261.229 1167.08 261.84C1166.78 262.429 1166.37 262.898 1165.87 263.247C1165.37 263.575 1164.79 263.815 1164.14 263.967C1163.5 264.098 1162.85 264.164 1162.17 264.164ZM1191.74 264.164C1190.1 264.164 1188.8 263.771 1187.84 262.985C1186.88 262.178 1186.4 260.902 1186.4 259.156V246H1187.94V258.895C1187.94 260.247 1188.22 261.24 1188.76 261.873C1189.31 262.484 1190.3 262.789 1191.74 262.789C1193.18 262.789 1194.17 262.484 1194.72 261.873C1195.26 261.24 1195.54 260.247 1195.54 258.895V246H1197.07V259.156C1197.07 260.902 1196.59 262.178 1195.63 262.985C1194.67 263.771 1193.38 264.164 1191.74 264.164ZM1226.74 252.284C1226.74 253.658 1226.47 254.727 1225.93 255.491C1225.38 256.255 1224.7 256.8 1223.9 257.127L1226.74 264H1225.07L1222.42 257.487C1222.31 257.509 1222.19 257.52 1222.06 257.52C1221.93 257.52 1221.81 257.52 1221.7 257.52H1217.78V264H1216.24V246H1222.06C1222.67 246 1223.26 246.098 1223.83 246.295C1224.4 246.491 1224.9 246.807 1225.34 247.244C1225.77 247.658 1226.11 248.204 1226.35 248.88C1226.61 249.535 1226.74 250.331 1226.74 251.269V252.284ZM1225.21 251.236C1225.21 250.124 1224.92 249.207 1224.35 248.487C1223.79 247.745 1222.79 247.375 1221.38 247.375H1217.78V256.145H1221.38C1222.1 256.145 1222.7 256.047 1223.18 255.851C1223.66 255.655 1224.05 255.382 1224.35 255.033C1224.66 254.684 1224.88 254.269 1225.01 253.789C1225.14 253.309 1225.21 252.796 1225.21 252.251V251.236ZM1276.47 264V255.884H1268.51V264H1266.98V246H1268.51V254.509H1276.47V246H1278V264H1276.47ZM1302.86 246L1307.41 264H1305.8L1304.63 259.353H1298.67L1297.49 264H1295.89L1300.44 246H1302.86ZM1301.65 247.702L1299 257.978H1304.3L1301.65 247.702ZM1334.99 246H1336.53V264H1335.12L1326.81 249.895V264H1325.27V246H1326.32L1334.99 260.727V246ZM1361.23 246C1361.87 246 1362.46 246.109 1363 246.327C1363.57 246.524 1364.06 246.807 1364.47 247.178C1364.91 247.527 1365.25 247.964 1365.49 248.487C1365.73 249.011 1365.85 249.578 1365.85 250.189V259.189C1365.85 260.651 1365.49 261.818 1364.77 262.691C1364.05 263.564 1363.08 264 1361.86 264H1355.7V246H1361.23ZM1364.31 250.844C1364.31 249.731 1364.03 248.88 1363.46 248.291C1362.91 247.68 1361.93 247.375 1360.51 247.375H1357.24V262.625H1360.94C1361.66 262.625 1362.24 262.538 1362.67 262.364C1363.13 262.167 1363.48 261.905 1363.72 261.578C1363.96 261.229 1364.11 260.825 1364.18 260.367C1364.27 259.887 1364.31 259.375 1364.31 258.829V250.844ZM1393.13 247.244H1392.7C1392.53 247.244 1392.29 247.244 1391.98 247.244C1391.7 247.222 1391.33 247.211 1390.87 247.211C1390.35 247.211 1389.77 247.233 1389.13 247.276C1388.52 247.32 1387.93 247.44 1387.37 247.636C1386.82 247.833 1386.36 248.127 1385.99 248.52C1385.62 248.891 1385.44 249.404 1385.44 250.058C1385.44 250.516 1385.64 250.985 1386.06 251.465C1386.47 251.924 1387 252.404 1387.63 252.905C1388.26 253.407 1388.94 253.931 1389.66 254.476C1390.4 255 1391.09 255.545 1391.72 256.113C1392.35 256.658 1392.88 257.236 1393.29 257.847C1393.71 258.458 1393.91 259.08 1393.91 259.713C1393.91 261.262 1393.42 262.396 1392.44 263.116C1391.46 263.815 1390.12 264.164 1388.41 264.164C1387.91 264.164 1387.41 264.131 1386.91 264.065C1386.47 264.022 1386.01 263.956 1385.53 263.869C1385.05 263.782 1384.62 263.651 1384.23 263.476V262.233C1384.77 262.385 1385.4 262.516 1386.12 262.625C1386.87 262.735 1387.59 262.789 1388.28 262.789C1388.92 262.789 1389.48 262.745 1389.99 262.658C1390.49 262.549 1390.91 262.375 1391.26 262.135C1391.63 261.895 1391.91 261.567 1392.08 261.153C1392.28 260.738 1392.37 260.215 1392.37 259.582C1392.37 259.08 1392.17 258.589 1391.75 258.109C1391.34 257.607 1390.81 257.116 1390.18 256.636C1389.55 256.156 1388.86 255.665 1388.12 255.164C1387.4 254.662 1386.72 254.138 1386.09 253.593C1385.46 253.047 1384.93 252.48 1384.52 251.891C1384.11 251.28 1383.9 250.636 1383.9 249.96C1383.9 249.524 1383.97 249.065 1384.13 248.585C1384.3 248.084 1384.6 247.636 1385.01 247.244C1385.43 246.829 1385.99 246.491 1386.71 246.229C1387.43 245.967 1388.34 245.836 1389.43 245.836C1389.82 245.836 1390.36 245.847 1391.03 245.869C1391.73 245.869 1392.43 245.902 1393.13 245.967V247.244Z" fill="#F7C571"/>
<defs>
<clipPath id="clip0_47_2">
<rect width="384" height="384" fill="white"/>
</clipPath>
</defs>
</svg>
