<svg width="1103" height="882" viewBox="0 0 1103 882" fill="none" xmlns="http://www.w3.org/2000/svg">
<rect width="1103" height="882" fill="#0C1C3B"/>
<g clip-path="url(#clip0_67_14)">
<path d="M517.882 366.149L514.52 368.232C512.671 369.378 504.098 374.397 495.469 379.387C468.81 394.804 463.88 398.19 461.329 402.825C459.287 406.536 458.781 413.123 458.389 441.144C457.885 477.146 458.79 484.496 464.516 490.9C467.243 493.949 514.932 523.105 517.193 523.105C517.572 523.105 517.892 500.077 517.904 471.93C517.917 443.783 518.434 419.957 519.056 418.981C521.527 415.094 529.276 414.036 554.212 414.181C590.568 414.391 590.491 414.336 570.772 425.817C546.392 440.012 543.293 442.201 541.728 446.314C540.929 448.416 540.294 469.743 540.294 494.481C540.294 542.836 540.732 545.518 548.612 545.518C552.757 545.518 635.601 497.524 641.461 491.728C643.538 489.673 645.83 486.435 646.556 484.533C647.281 482.631 647.874 464.612 647.874 444.49C647.874 404.125 647.533 402.341 638.537 395.61C635.865 393.61 628.637 389.122 622.473 385.635C616.31 382.147 609.25 378.116 606.784 376.676C604.319 375.235 591.544 367.853 578.395 360.27C565.247 352.687 553.653 345.802 552.633 344.971C551.203 343.807 550.689 324.114 550.392 259.175L550.006 174.887L536.71 182.771C516.249 194.902 517.882 186.155 517.882 283.607V366.149Z" fill="#F2C973"/>
<path d="M556.729 176.459C556.992 176.459 556.729 213.414 556.729 258.58V340.702L569.056 347.98C575.835 351.983 582.895 356.067 584.745 357.056L588.107 358.852V335.103V311.354L582.892 304.794C576.248 296.436 576.061 290.928 582.165 283.25C587.696 276.289 588.655 272.743 587.799 262.424C587.275 256.089 586.133 253.258 582.39 248.995C576.203 241.945 576.313 237.134 582.877 227.902C587.659 221.178 588.107 219.648 588.101 210.082C588.093 195.832 585.507 191.983 570.132 183.337C563.405 179.554 557.638 176.459 557.315 176.459C556.992 176.459 556.729 176.459 556.729 176.459Z" fill="#CD984C"/>
</g>
<path d="M70.3131 641.986C66.8811 641.986 63.8651 641.648 61.2651 640.972C58.7171 640.296 56.7151 638.892 55.2591 636.76C53.5431 634.264 52.6851 630.468 52.6851 625.372V600.412C52.6851 596.772 53.1011 593.86 53.9331 591.676C54.8171 589.44 56.1431 587.724 57.9111 586.528C59.4191 585.54 61.1871 584.864 63.2151 584.5C65.2951 584.084 67.7131 583.876 70.4691 583.876H105.335V592.924H73.7451C71.5611 592.924 69.8711 593.652 68.6751 595.108C67.5311 596.512 66.9591 598.54 66.9591 601.192V624.67C66.9591 627.79 67.4791 629.948 68.5191 631.144C69.6111 632.34 71.3271 632.938 73.6671 632.938H91.9191V618.976H79.9071V609.928H106.115V641.986H70.3131ZM151.443 593.002V641.908H137.247V593.002H117.591V583.876H171.177V593.002H151.443ZM222.497 641.908L218.051 627.634H197.849L193.247 641.908H178.037L199.097 583.798H216.569L237.707 641.908H222.497ZM208.067 595.576L200.735 618.586H215.243L208.067 595.576ZM300.957 625.138C300.957 628.102 300.671 630.598 300.099 632.626C299.527 634.602 298.695 636.214 297.603 637.462C296.043 639.282 294.015 640.478 291.519 641.05C289.023 641.622 286.189 641.908 283.017 641.908H247.371V583.876H282.861C286.085 583.876 288.763 584.162 290.895 584.734C293.027 585.254 294.769 585.982 296.121 586.918C297.213 587.698 298.071 588.582 298.695 589.57C299.371 590.558 299.865 591.624 300.177 592.768C300.489 593.912 300.697 595.134 300.801 596.434C300.905 597.682 300.957 598.956 300.957 600.256V625.138ZM286.761 601.036C286.761 598.228 286.293 596.174 285.357 594.874C284.421 593.574 282.523 592.924 279.663 592.924H261.645V632.86H280.053C282.185 632.86 283.823 632.184 284.967 630.832C286.163 629.428 286.761 627.27 286.761 624.358V601.036ZM368.749 625.606C368.749 628.362 368.489 630.728 367.969 632.704C367.449 634.68 366.591 636.344 365.395 637.696C364.043 639.204 362.197 640.296 359.857 640.972C357.517 641.648 354.553 641.986 350.965 641.986H332.947C329.203 641.986 326.161 641.648 323.821 640.972C321.481 640.296 319.661 639.204 318.361 637.696C317.165 636.344 316.333 634.68 315.865 632.704C315.397 630.728 315.163 628.362 315.163 625.606V600.256C315.163 597.188 315.449 594.614 316.021 592.534C316.593 590.454 317.581 588.764 318.985 587.464C320.337 586.216 322.131 585.306 324.367 584.734C326.655 584.162 329.515 583.876 332.947 583.876H350.965C356.997 583.876 361.365 584.89 364.069 586.918C365.733 588.218 366.929 589.96 367.657 592.144C368.385 594.276 368.749 596.98 368.749 600.256V625.606ZM354.397 601.114C354.397 599.45 354.267 598.098 354.007 597.058C353.747 595.966 353.331 595.134 352.759 594.562C352.239 593.938 351.537 593.522 350.653 593.314C349.821 593.054 348.807 592.924 347.611 592.924H336.301C334.013 592.924 332.297 593.548 331.153 594.796C330.009 596.044 329.437 598.15 329.437 601.114V624.748C329.437 626.256 329.541 627.53 329.749 628.57C329.957 629.61 330.321 630.468 330.841 631.144C331.361 631.768 332.063 632.236 332.947 632.548C333.831 632.808 334.949 632.938 336.301 632.938H347.611C350.055 632.938 351.797 632.392 352.837 631.3C353.877 630.156 354.397 627.972 354.397 624.748V601.114ZM436.31 625.606C436.31 628.362 436.05 630.728 435.53 632.704C435.01 634.68 434.152 636.344 432.956 637.696C431.604 639.204 429.758 640.296 427.418 640.972C425.078 641.648 422.114 641.986 418.526 641.986H400.508C396.764 641.986 393.722 641.648 391.382 640.972C389.042 640.296 387.222 639.204 385.922 637.696C384.726 636.344 383.894 634.68 383.426 632.704C382.958 630.728 382.724 628.362 382.724 625.606V600.256C382.724 597.188 383.01 594.614 383.582 592.534C384.154 590.454 385.142 588.764 386.546 587.464C387.898 586.216 389.692 585.306 391.928 584.734C394.216 584.162 397.076 583.876 400.508 583.876H418.526C424.558 583.876 428.926 584.89 431.63 586.918C433.294 588.218 434.49 589.96 435.218 592.144C435.946 594.276 436.31 596.98 436.31 600.256V625.606ZM421.958 601.114C421.958 599.45 421.828 598.098 421.568 597.058C421.308 595.966 420.892 595.134 420.32 594.562C419.8 593.938 419.098 593.522 418.214 593.314C417.382 593.054 416.368 592.924 415.172 592.924H403.862C401.574 592.924 399.858 593.548 398.714 594.796C397.57 596.044 396.998 598.15 396.998 601.114V624.748C396.998 626.256 397.102 627.53 397.31 628.57C397.518 629.61 397.882 630.468 398.402 631.144C398.922 631.768 399.624 632.236 400.508 632.548C401.392 632.808 402.51 632.938 403.862 632.938H415.172C417.616 632.938 419.358 632.392 420.398 631.3C421.438 630.156 421.958 627.972 421.958 624.748V601.114ZM502.39 642.298C496.982 642.038 492.432 641.05 488.74 639.334C485.1 637.618 482.084 635.564 479.692 633.172C477.56 631.092 475.844 628.83 474.544 626.386C473.244 623.942 472.152 621.55 471.268 619.21H464.482V641.908H450.208V583.876H483.904C486.036 583.876 488.09 584.058 490.066 584.422C492.042 584.734 493.81 585.332 495.37 586.216C497.034 587.152 498.334 588.452 499.27 590.116C500.258 591.728 500.752 593.86 500.752 596.512V606.574C500.752 608.862 500.284 610.916 499.348 612.736C498.412 614.556 497.19 615.934 495.682 616.87C494.486 617.598 493.134 618.144 491.626 618.508C490.17 618.872 488.272 619.106 485.932 619.21C486.504 620.406 487.128 621.628 487.804 622.876C488.532 624.124 489.468 625.32 490.612 626.464C491.912 627.816 493.524 629.09 495.448 630.286C497.372 631.43 499.686 632.418 502.39 633.25V642.298ZM486.556 597.994C486.556 596.434 486.036 595.212 484.996 594.328C484.008 593.392 482.162 592.924 479.458 592.924H464.482V610.162H479.458C481.902 610.162 483.696 609.694 484.84 608.758C485.984 607.822 486.556 606.522 486.556 604.858V597.994ZM564.882 628.102C564.882 630.286 564.492 632.236 563.712 633.952C562.932 635.668 561.866 637.124 560.514 638.32C559.214 639.464 557.706 640.348 555.99 640.972C554.274 641.596 552.246 641.908 549.906 641.908H514.962V632.782H543.588C545.98 632.782 547.748 632.34 548.892 631.456C550.088 630.572 550.686 628.986 550.686 626.698V621.238C550.686 619.938 550.244 618.95 549.36 618.274C548.476 617.546 547.046 617.182 545.07 617.182H527.676C525.388 617.182 523.36 616.896 521.592 616.324C519.824 615.752 518.342 614.816 517.146 613.516C516.262 612.528 515.534 611.332 514.962 609.928C514.442 608.472 514.182 606.756 514.182 604.78V598.072C514.182 595.836 514.546 593.834 515.274 592.066C516.002 590.246 517.12 588.712 518.628 587.464C520.032 586.268 521.774 585.358 523.854 584.734C525.934 584.11 528.378 583.798 531.186 583.798H563.088V592.924H535.476C533.344 592.924 531.628 593.47 530.328 594.562C529.08 595.654 528.456 597.136 528.456 599.008V604.156C528.456 605.664 528.924 606.704 529.86 607.276C530.796 607.796 532.07 608.056 533.682 608.056H549.75C552.038 608.056 554.092 608.29 555.912 608.758C557.784 609.226 559.396 609.98 560.748 611.02C563.504 613.204 564.882 616.324 564.882 620.38V628.102ZM632.139 625.606C632.139 628.362 631.879 630.728 631.359 632.704C630.839 634.68 629.981 636.344 628.785 637.696C627.433 639.204 625.587 640.296 623.247 640.972C620.907 641.648 617.943 641.986 614.355 641.986H596.337C592.593 641.986 589.551 641.648 587.211 640.972C584.871 640.296 583.051 639.204 581.751 637.696C580.555 636.344 579.723 634.68 579.255 632.704C578.787 630.728 578.553 628.362 578.553 625.606V600.256C578.553 597.188 578.839 594.614 579.411 592.534C579.983 590.454 580.971 588.764 582.375 587.464C583.727 586.216 585.521 585.306 587.757 584.734C590.045 584.162 592.905 583.876 596.337 583.876H614.355C620.387 583.876 624.755 584.89 627.459 586.918C629.123 588.218 630.319 589.96 631.047 592.144C631.775 594.276 632.139 596.98 632.139 600.256V625.606ZM617.787 601.114C617.787 599.45 617.657 598.098 617.397 597.058C617.137 595.966 616.721 595.134 616.149 594.562C615.629 593.938 614.927 593.522 614.043 593.314C613.211 593.054 612.197 592.924 611.001 592.924H599.691C597.403 592.924 595.687 593.548 594.543 594.796C593.399 596.044 592.827 598.15 592.827 601.114V624.748C592.827 626.256 592.931 627.53 593.139 628.57C593.347 629.61 593.711 630.468 594.231 631.144C594.751 631.768 595.453 632.236 596.337 632.548C597.221 632.808 598.339 632.938 599.691 632.938H611.001C613.445 632.938 615.187 632.392 616.227 631.3C617.267 630.156 617.787 627.972 617.787 624.748V601.114ZM646.115 641.908V583.876H660.389V632.86H689.951V641.908H646.115ZM755.305 625.372C755.305 628.648 754.941 631.326 754.213 633.406C753.537 635.486 752.523 637.124 751.171 638.32C749.663 639.672 747.765 640.608 745.477 641.128C743.189 641.648 740.511 641.908 737.443 641.908H719.581C715.941 641.908 712.925 641.57 710.533 640.894C708.141 640.166 706.243 638.97 704.839 637.306C702.707 634.81 701.641 630.832 701.641 625.372V583.876H716.071V624.592C716.071 627.452 716.565 629.532 717.553 630.832C718.125 631.56 718.853 632.08 719.737 632.392C720.673 632.704 721.765 632.86 723.013 632.86H734.089C735.441 632.86 736.585 632.678 737.521 632.314C738.509 631.95 739.289 631.274 739.861 630.286C740.589 628.986 740.953 627.088 740.953 624.592V583.876H755.305V625.372ZM800.321 593.002V641.908H786.125V593.002H766.469V583.876H820.055V593.002H800.321ZM834.013 641.908V583.876H848.209V641.908H834.013ZM918.759 625.606C918.759 628.362 918.499 630.728 917.979 632.704C917.459 634.68 916.601 636.344 915.405 637.696C914.053 639.204 912.207 640.296 909.867 640.972C907.527 641.648 904.563 641.986 900.975 641.986H882.957C879.213 641.986 876.171 641.648 873.831 640.972C871.491 640.296 869.671 639.204 868.371 637.696C867.175 636.344 866.343 634.68 865.875 632.704C865.407 630.728 865.173 628.362 865.173 625.606V600.256C865.173 597.188 865.459 594.614 866.031 592.534C866.603 590.454 867.591 588.764 868.995 587.464C870.347 586.216 872.141 585.306 874.377 584.734C876.665 584.162 879.525 583.876 882.957 583.876H900.975C907.007 583.876 911.375 584.89 914.079 586.918C915.743 588.218 916.939 589.96 917.667 592.144C918.395 594.276 918.759 596.98 918.759 600.256V625.606ZM904.407 601.114C904.407 599.45 904.277 598.098 904.017 597.058C903.757 595.966 903.341 595.134 902.769 594.562C902.249 593.938 901.547 593.522 900.663 593.314C899.831 593.054 898.817 592.924 897.621 592.924H886.311C884.023 592.924 882.307 593.548 881.163 594.796C880.019 596.044 879.447 598.15 879.447 601.114V624.748C879.447 626.256 879.551 627.53 879.759 628.57C879.967 629.61 880.331 630.468 880.851 631.144C881.371 631.768 882.073 632.236 882.957 632.548C883.841 632.808 884.959 632.938 886.311 632.938H897.621C900.065 632.938 901.807 632.392 902.847 631.3C903.887 630.156 904.407 627.972 904.407 624.748V601.114ZM970.642 641.986L946.774 606.262V641.986H932.734V583.876H948.412L972.28 619.522V583.876H986.32V641.986H970.642ZM1050.61 628.102C1050.61 630.286 1050.22 632.236 1049.44 633.952C1048.66 635.668 1047.59 637.124 1046.24 638.32C1044.94 639.464 1043.43 640.348 1041.71 640.972C1040 641.596 1037.97 641.908 1035.63 641.908H1000.69V632.782H1029.31C1031.7 632.782 1033.47 632.34 1034.62 631.456C1035.81 630.572 1036.41 628.986 1036.41 626.698V621.238C1036.41 619.938 1035.97 618.95 1035.08 618.274C1034.2 617.546 1032.77 617.182 1030.79 617.182H1013.4C1011.11 617.182 1009.08 616.896 1007.32 616.324C1005.55 615.752 1004.07 614.816 1002.87 613.516C1001.99 612.528 1001.26 611.332 1000.69 609.928C1000.17 608.472 999.906 606.756 999.906 604.78V598.072C999.906 595.836 1000.27 593.834 1001 592.066C1001.73 590.246 1002.84 588.712 1004.35 587.464C1005.76 586.268 1007.5 585.358 1009.58 584.734C1011.66 584.11 1014.1 583.798 1016.91 583.798H1048.81V592.924H1021.2C1019.07 592.924 1017.35 593.47 1016.05 594.562C1014.8 595.654 1014.18 597.136 1014.18 599.008V604.156C1014.18 605.664 1014.65 606.704 1015.58 607.276C1016.52 607.796 1017.79 608.056 1019.41 608.056H1035.47C1037.76 608.056 1039.82 608.29 1041.64 608.758C1043.51 609.226 1045.12 609.98 1046.47 611.02C1049.23 613.204 1050.61 616.324 1050.61 620.38V628.102Z" fill="#F7C571"/>
<path d="M54.5047 705.204L49.5956 693.88V709H48.0575V691H49.9884L54.9302 702.291L59.872 691H61.8029V709H60.2647V693.88L55.3556 705.204H54.5047ZM86.6466 691L91.1957 709H89.5921L88.4139 704.353H82.4575L81.2793 709H79.6757L84.2248 691H86.6466ZM85.4357 692.702L82.7848 702.978H88.0866L85.4357 692.702ZM110.631 699.411L117.962 691H120.024L112.202 699.902L120.122 709H118.093L110.631 700.458V709H109.061V691H110.631V699.411ZM137.488 691H139.026V709H137.488V691ZM167.936 691H169.474V709H168.067L159.754 694.895V709H158.216V691H159.263L167.936 705.727V691ZM194.08 692.375C193.207 692.375 192.498 692.462 191.953 692.636C191.407 692.789 190.971 693.04 190.644 693.389C190.338 693.738 190.131 694.185 190.022 694.731C189.913 695.276 189.858 695.931 189.858 696.695V703.862C189.858 704.429 189.913 704.953 190.022 705.433C190.153 705.913 190.371 706.327 190.676 706.676C191.004 707.025 191.44 707.298 191.985 707.495C192.531 707.691 193.229 707.789 194.08 707.789C194.909 707.789 195.585 707.68 196.109 707.462C196.655 707.222 197.08 706.916 197.385 706.545C197.713 706.153 197.931 705.705 198.04 705.204C198.171 704.702 198.236 704.167 198.236 703.6V701.276H196.338V699.902H199.775V709H198.924L198.498 707.331C197.887 708.073 197.178 708.564 196.371 708.804C195.585 709.044 194.822 709.164 194.08 709.164C193.404 709.164 192.716 709.087 192.018 708.935C191.342 708.782 190.731 708.531 190.185 708.182C189.64 707.833 189.193 707.375 188.844 706.807C188.495 706.218 188.32 705.509 188.32 704.68V696.204C188.32 695.113 188.473 694.218 188.778 693.52C189.084 692.822 189.498 692.276 190.022 691.884C190.545 691.491 191.156 691.218 191.855 691.065C192.553 690.913 193.295 690.836 194.08 690.836C194.909 690.836 195.662 690.902 196.338 691.033C197.036 691.142 197.636 691.36 198.138 691.687C198.64 691.993 199.033 692.418 199.316 692.964C199.6 693.509 199.742 694.207 199.742 695.058H198.236C198.127 693.945 197.745 693.225 197.091 692.898C196.436 692.549 195.433 692.375 194.08 692.375ZM249.541 692.244H249.116C248.941 692.244 248.701 692.244 248.396 692.244C248.112 692.222 247.741 692.211 247.283 692.211C246.76 692.211 246.181 692.233 245.549 692.276C244.938 692.32 244.349 692.44 243.781 692.636C243.236 692.833 242.778 693.127 242.407 693.52C242.036 693.891 241.85 694.404 241.85 695.058C241.85 695.516 242.058 695.985 242.472 696.465C242.887 696.924 243.41 697.404 244.043 697.905C244.676 698.407 245.352 698.931 246.072 699.476C246.814 700 247.501 700.545 248.134 701.113C248.767 701.658 249.29 702.236 249.705 702.847C250.12 703.458 250.327 704.08 250.327 704.713C250.327 706.262 249.836 707.396 248.854 708.116C247.872 708.815 246.53 709.164 244.829 709.164C244.327 709.164 243.825 709.131 243.323 709.065C242.887 709.022 242.429 708.956 241.949 708.869C241.469 708.782 241.032 708.651 240.64 708.476V707.233C241.185 707.385 241.818 707.516 242.538 707.625C243.28 707.735 244 707.789 244.698 707.789C245.33 707.789 245.898 707.745 246.4 707.658C246.901 707.549 247.327 707.375 247.676 707.135C248.047 706.895 248.32 706.567 248.494 706.153C248.69 705.738 248.789 705.215 248.789 704.582C248.789 704.08 248.581 703.589 248.167 703.109C247.752 702.607 247.229 702.116 246.596 701.636C245.963 701.156 245.276 700.665 244.534 700.164C243.814 699.662 243.138 699.138 242.505 698.593C241.872 698.047 241.349 697.48 240.934 696.891C240.52 696.28 240.312 695.636 240.312 694.96C240.312 694.524 240.389 694.065 240.541 693.585C240.716 693.084 241.01 692.636 241.425 692.244C241.84 691.829 242.407 691.491 243.127 691.229C243.847 690.967 244.752 690.836 245.843 690.836C246.236 690.836 246.77 690.847 247.447 690.869C248.145 690.869 248.843 690.902 249.541 690.967V692.244ZM274.201 709.164C272.565 709.164 271.267 708.771 270.307 707.985C269.347 707.178 268.867 705.902 268.867 704.156V691H270.405V703.895C270.405 705.247 270.678 706.24 271.223 706.873C271.769 707.484 272.761 707.789 274.201 707.789C275.641 707.789 276.634 707.484 277.18 706.873C277.725 706.24 277.998 705.247 277.998 703.895V691H279.536V704.156C279.536 705.902 279.056 707.178 278.096 707.985C277.136 708.771 275.838 709.164 274.201 709.164ZM309.206 697.284C309.206 698.658 308.933 699.727 308.388 700.491C307.842 701.255 307.166 701.8 306.359 702.127L309.206 709H307.537L304.886 702.487C304.777 702.509 304.657 702.52 304.526 702.52C304.395 702.52 304.275 702.52 304.166 702.52H300.239V709H298.7V691H304.526C305.137 691 305.726 691.098 306.293 691.295C306.86 691.491 307.362 691.807 307.799 692.244C308.235 692.658 308.573 693.204 308.813 693.88C309.075 694.535 309.206 695.331 309.206 696.269V697.284ZM307.668 696.236C307.668 695.124 307.384 694.207 306.817 693.487C306.25 692.745 305.257 692.375 303.839 692.375H300.239V701.145H303.839C304.559 701.145 305.159 701.047 305.639 700.851C306.119 700.655 306.511 700.382 306.817 700.033C307.122 699.684 307.34 699.269 307.471 698.789C307.602 698.309 307.668 697.796 307.668 697.251V696.236ZM328.947 692.375V699.476H334.282V700.851H328.947V707.625H335.427V709H327.409V691H335.427V692.375H328.947ZM379.252 709V692.375H375.488V691H384.619V692.375H380.79V709H379.252ZM412.619 709V700.884H404.667V709H403.129V691H404.667V699.509H412.619V691H414.158V709H412.619ZM434.887 692.375V699.476H440.222V700.851H434.887V707.625H441.367V709H433.349V691H441.367V692.375H434.887ZM483.653 699.411L490.984 691H493.046L485.224 699.902L493.144 709H491.115L483.653 700.458V709H482.082V691H483.653V699.411ZM512.048 692.375V699.476H517.383V700.851H512.048V707.625H518.528V709H510.51V691H518.528V692.375H512.048ZM544.401 691H546.136L541.652 702.291V709H540.081V702.225L535.565 691H537.267L540.834 699.967L544.401 691ZM571.931 692.244H571.506C571.331 692.244 571.091 692.244 570.786 692.244C570.502 692.222 570.131 692.211 569.673 692.211C569.149 692.211 568.571 692.233 567.938 692.276C567.328 692.32 566.738 692.44 566.171 692.636C565.626 692.833 565.168 693.127 564.797 693.52C564.426 693.891 564.24 694.404 564.24 695.058C564.24 695.516 564.448 695.985 564.862 696.465C565.277 696.924 565.8 697.404 566.433 697.905C567.066 698.407 567.742 698.931 568.462 699.476C569.204 700 569.891 700.545 570.524 701.113C571.157 701.658 571.68 702.236 572.095 702.847C572.509 703.458 572.717 704.08 572.717 704.713C572.717 706.262 572.226 707.396 571.244 708.116C570.262 708.815 568.92 709.164 567.218 709.164C566.717 709.164 566.215 709.131 565.713 709.065C565.277 709.022 564.818 708.956 564.338 708.869C563.858 708.782 563.422 708.651 563.029 708.476V707.233C563.575 707.385 564.208 707.516 564.928 707.625C565.669 707.735 566.389 707.789 567.088 707.789C567.72 707.789 568.288 707.745 568.789 707.658C569.291 707.549 569.717 707.375 570.066 707.135C570.437 706.895 570.709 706.567 570.884 706.153C571.08 705.738 571.178 705.215 571.178 704.582C571.178 704.08 570.971 703.589 570.557 703.109C570.142 702.607 569.618 702.116 568.986 701.636C568.353 701.156 567.666 700.665 566.924 700.164C566.204 699.662 565.528 699.138 564.895 698.593C564.262 698.047 563.738 697.48 563.324 696.891C562.909 696.28 562.702 695.636 562.702 694.96C562.702 694.524 562.778 694.065 562.931 693.585C563.106 693.084 563.4 692.636 563.815 692.244C564.229 691.829 564.797 691.491 565.517 691.229C566.237 690.967 567.142 690.836 568.233 690.836C568.626 690.836 569.16 690.847 569.837 690.869C570.535 690.869 571.233 690.902 571.931 690.967V692.244ZM618.947 691L623.496 709H621.893L620.715 704.353H614.758L613.58 709H611.976L616.526 691H618.947ZM617.736 692.702L615.086 702.978H620.387L617.736 692.702ZM651.867 697.284C651.867 698.658 651.594 699.727 651.049 700.491C650.503 701.255 649.827 701.8 649.02 702.127L651.867 709H650.198L647.547 702.487C647.438 702.509 647.318 702.52 647.187 702.52C647.056 702.52 646.936 702.52 646.827 702.52H642.9V709H641.361V691H647.187C647.798 691 648.387 691.098 648.954 691.295C649.521 691.491 650.023 691.807 650.46 692.244C650.896 692.658 651.234 693.204 651.474 693.88C651.736 694.535 651.867 695.331 651.867 696.269V697.284ZM650.329 696.236C650.329 695.124 650.045 694.207 649.478 693.487C648.91 692.745 647.918 692.375 646.5 692.375H642.9V701.145H646.5C647.22 701.145 647.82 701.047 648.3 700.851C648.78 700.655 649.172 700.382 649.478 700.033C649.783 699.684 650.001 699.269 650.132 698.789C650.263 698.309 650.329 697.796 650.329 697.251V696.236ZM671.608 692.375V699.476H676.943V700.851H671.608V707.625H678.088V709H670.07V691H678.088V692.375H671.608ZM718.804 691H720.342V709H718.804V691ZM749.252 691H750.79V709H749.383L741.07 694.895V709H739.532V691H740.579L749.252 705.727V691ZM799.846 691H801.581L797.097 702.291V709H795.526V702.225L791.01 691H792.712L796.279 699.967L799.846 691ZM823.809 707.789C825.271 707.767 826.275 707.495 826.82 706.971C827.387 706.447 827.671 705.596 827.671 704.418V695.385C827.671 694.251 827.387 693.444 826.82 692.964C826.253 692.462 825.238 692.211 823.776 692.211C822.358 692.211 821.376 692.451 820.831 692.931C820.286 693.411 820.013 694.229 820.013 695.385V704.418C820.013 705.596 820.286 706.447 820.831 706.971C821.398 707.495 822.391 707.767 823.809 707.789ZM823.842 709.164C823.166 709.164 822.5 709.098 821.846 708.967C821.213 708.815 820.646 708.575 820.144 708.247C819.642 707.898 819.238 707.429 818.933 706.84C818.627 706.229 818.475 705.465 818.475 704.549V694.993C818.475 693.684 818.911 692.669 819.784 691.949C820.678 691.207 822.031 690.836 823.842 690.836C825.653 690.836 826.995 691.207 827.867 691.949C828.762 692.669 829.209 693.684 829.209 694.993V704.549C829.209 705.465 829.056 706.229 828.751 706.84C828.446 707.429 828.042 707.898 827.54 708.247C827.038 708.575 826.46 708.815 825.806 708.967C825.173 709.098 824.518 709.164 823.842 709.164ZM853.408 709.164C851.771 709.164 850.473 708.771 849.513 707.985C848.553 707.178 848.073 705.902 848.073 704.156V691H849.611V703.895C849.611 705.247 849.884 706.24 850.429 706.873C850.975 707.484 851.968 707.789 853.408 707.789C854.848 707.789 855.84 707.484 856.386 706.873C856.931 706.24 857.204 705.247 857.204 703.895V691H858.742V704.156C858.742 705.902 858.262 707.178 857.302 707.985C856.342 708.771 855.044 709.164 853.408 709.164ZM888.412 697.284C888.412 698.658 888.139 699.727 887.594 700.491C887.048 701.255 886.372 701.8 885.565 702.127L888.412 709H886.743L884.092 702.487C883.983 702.509 883.863 702.52 883.732 702.52C883.601 702.52 883.481 702.52 883.372 702.52H879.445V709H877.907V691H883.732C884.343 691 884.932 691.098 885.499 691.295C886.067 691.491 886.568 691.807 887.005 692.244C887.441 692.658 887.779 693.204 888.019 693.88C888.281 694.535 888.412 695.331 888.412 696.269V697.284ZM886.874 696.236C886.874 695.124 886.59 694.207 886.023 693.487C885.456 692.745 884.463 692.375 883.045 692.375H879.445V701.145H883.045C883.765 701.145 884.365 701.047 884.845 700.851C885.325 700.655 885.718 700.382 886.023 700.033C886.328 699.684 886.547 699.269 886.678 698.789C886.808 698.309 886.874 697.796 886.874 697.251V696.236ZM938.135 709V700.884H930.182V709H928.644V691H930.182V699.509H938.135V691H939.673V709H938.135ZM964.526 691L969.075 709H967.472L966.294 704.353H960.337L959.159 709H957.555L962.104 691H964.526ZM963.315 692.702L960.664 702.978H965.966L963.315 692.702ZM996.66 691H998.198V709H996.791L988.478 694.895V709H986.94V691H987.988L996.66 705.727V691ZM1022.9 691C1023.54 691 1024.12 691.109 1024.67 691.327C1025.24 691.524 1025.73 691.807 1026.14 692.178C1026.58 692.527 1026.92 692.964 1027.16 693.487C1027.4 694.011 1027.52 694.578 1027.52 695.189V704.189C1027.52 705.651 1027.16 706.818 1026.44 707.691C1025.72 708.564 1024.75 709 1023.52 709H1017.37V691H1022.9ZM1025.98 695.844C1025.98 694.731 1025.7 693.88 1025.13 693.291C1024.58 692.68 1023.6 692.375 1022.18 692.375H1018.91V707.625H1022.61C1023.33 707.625 1023.91 707.538 1024.34 707.364C1024.8 707.167 1025.15 706.905 1025.39 706.578C1025.63 706.229 1025.78 705.825 1025.85 705.367C1025.94 704.887 1025.98 704.375 1025.98 703.829V695.844ZM1054.8 692.244H1054.37C1054.2 692.244 1053.96 692.244 1053.65 692.244C1053.37 692.222 1053 692.211 1052.54 692.211C1052.01 692.211 1051.44 692.233 1050.8 692.276C1050.19 692.32 1049.6 692.44 1049.04 692.636C1048.49 692.833 1048.03 693.127 1047.66 693.52C1047.29 693.891 1047.1 694.404 1047.1 695.058C1047.1 695.516 1047.31 695.985 1047.73 696.465C1048.14 696.924 1048.66 697.404 1049.3 697.905C1049.93 698.407 1050.61 698.931 1051.33 699.476C1052.07 700 1052.76 700.545 1053.39 701.113C1054.02 701.658 1054.54 702.236 1054.96 702.847C1055.37 703.458 1055.58 704.08 1055.58 704.713C1055.58 706.262 1055.09 707.396 1054.11 708.116C1053.13 708.815 1051.78 709.164 1050.08 709.164C1049.58 709.164 1049.08 709.131 1048.58 709.065C1048.14 709.022 1047.68 708.956 1047.2 708.869C1046.72 708.782 1046.29 708.651 1045.89 708.476V707.233C1046.44 707.385 1047.07 707.516 1047.79 707.625C1048.53 707.735 1049.25 707.789 1049.95 707.789C1050.58 707.789 1051.15 707.745 1051.65 707.658C1052.16 707.549 1052.58 707.375 1052.93 707.135C1053.3 706.895 1053.57 706.567 1053.75 706.153C1053.94 705.738 1054.04 705.215 1054.04 704.582C1054.04 704.08 1053.84 703.589 1053.42 703.109C1053.01 702.607 1052.48 702.116 1051.85 701.636C1051.22 701.156 1050.53 700.665 1049.79 700.164C1049.07 699.662 1048.39 699.138 1047.76 698.593C1047.13 698.047 1046.6 697.48 1046.19 696.891C1045.77 696.28 1045.57 695.636 1045.57 694.96C1045.57 694.524 1045.64 694.065 1045.8 693.585C1045.97 693.084 1046.26 692.636 1046.68 692.244C1047.09 691.829 1047.66 691.491 1048.38 691.229C1049.1 690.967 1050.01 690.836 1051.1 690.836C1051.49 690.836 1052.02 690.847 1052.7 690.869C1053.4 690.869 1054.1 690.902 1054.8 690.967V692.244Z" fill="#F6C577"/>
<defs>
<clipPath id="clip0_67_14">
<rect width="384" height="384" fill="white" transform="translate(359.5 166)"/>
</clipPath>
</defs>
</svg>
