<svg width="1352" height="384" viewBox="0 0 1352 384" fill="none" xmlns="http://www.w3.org/2000/svg">
<rect width="1352" height="384" fill="#0C1C3B"/>
<g clip-path="url(#clip0_67_3)">
<path d="M186.382 200.149L183.02 202.232C181.171 203.378 172.598 208.397 163.969 213.387C137.31 228.804 132.38 232.19 129.829 236.825C127.787 240.536 127.281 247.123 126.889 275.144C126.385 311.146 127.29 318.496 133.016 324.9C135.743 327.949 183.432 357.105 185.693 357.105C186.072 357.105 186.392 334.077 186.404 305.93C186.417 277.783 186.934 253.957 187.556 252.981C190.027 249.093 197.776 248.036 222.712 248.181C259.068 248.391 258.991 248.336 239.272 259.817C214.892 274.012 211.793 276.201 210.228 280.314C209.429 282.416 208.794 303.743 208.794 328.481C208.794 376.836 209.232 379.518 217.112 379.518C221.257 379.518 304.101 331.523 309.961 325.728C312.038 323.673 314.33 320.435 315.056 318.533C315.781 316.631 316.374 298.612 316.374 278.49C316.374 238.125 316.033 236.341 307.037 229.61C304.365 227.61 297.137 223.122 290.973 219.635C284.81 216.147 277.75 212.116 275.284 210.676C272.819 209.235 260.044 201.853 246.895 194.27C233.747 186.687 222.153 179.802 221.133 178.971C219.703 177.807 219.189 158.114 218.892 93.1746L218.506 8.8873L205.21 16.7705C184.749 28.9016 186.382 20.1548 186.382 117.607V200.149Z" fill="#F2C973"/>
<path d="M225.229 10.4591C225.492 10.4591 225.229 47.4143 225.229 92.5799V174.702L237.556 181.98C244.335 185.983 251.395 190.067 253.245 191.056L256.607 192.852V169.103V145.354L251.392 138.794C244.748 130.436 244.561 124.928 250.665 117.25C256.196 110.289 257.155 106.743 256.299 96.4243C255.775 90.0891 254.633 87.2577 250.89 82.9948C244.703 75.9453 244.813 71.1341 251.377 61.9017C256.159 55.178 256.607 53.6479 256.601 44.0823C256.593 29.8325 254.007 25.9835 238.632 17.3368C231.905 13.5535 226.138 10.4591 225.815 10.4591C225.492 10.4591 225.229 10.4591 225.229 10.4591Z" fill="#CD984C"/>
</g>
<path d="M410.01 222.986C406.578 222.986 403.562 222.648 400.962 221.972C398.414 221.296 396.412 219.892 394.956 217.76C393.24 215.264 392.382 211.468 392.382 206.372V181.412C392.382 177.772 392.798 174.86 393.63 172.676C394.514 170.44 395.84 168.724 397.608 167.528C399.116 166.54 400.884 165.864 402.912 165.5C404.992 165.084 407.41 164.876 410.166 164.876H445.032V173.924H413.442C411.258 173.924 409.568 174.652 408.372 176.108C407.228 177.512 406.656 179.54 406.656 182.192V205.67C406.656 208.79 407.176 210.948 408.216 212.144C409.308 213.34 411.024 213.938 413.364 213.938H431.616V199.976H419.604V190.928H445.812V222.986H410.01ZM488.02 174.002V222.908H473.824V174.002H454.168V164.876H507.754V174.002H488.02ZM555.954 222.908L551.508 208.634H531.306L526.704 222.908H511.494L532.554 164.798H550.026L571.164 222.908H555.954ZM541.524 176.576L534.192 199.586H548.7L541.524 176.576ZM631.294 206.138C631.294 209.102 631.008 211.598 630.436 213.626C629.864 215.602 629.032 217.214 627.94 218.462C626.38 220.282 624.352 221.478 621.856 222.05C619.36 222.622 616.526 222.908 613.354 222.908H577.708V164.876H613.198C616.422 164.876 619.1 165.162 621.232 165.734C623.364 166.254 625.106 166.982 626.458 167.918C627.55 168.698 628.408 169.582 629.032 170.57C629.708 171.558 630.202 172.624 630.514 173.768C630.826 174.912 631.034 176.134 631.138 177.434C631.242 178.682 631.294 179.956 631.294 181.256V206.138ZM617.098 182.036C617.098 179.228 616.63 177.174 615.694 175.874C614.758 174.574 612.86 173.924 610 173.924H591.982V213.86H610.39C612.522 213.86 614.16 213.184 615.304 211.832C616.5 210.428 617.098 208.27 617.098 205.358V182.036ZM695.966 206.606C695.966 209.362 695.706 211.728 695.186 213.704C694.666 215.68 693.808 217.344 692.612 218.696C691.26 220.204 689.414 221.296 687.074 221.972C684.734 222.648 681.77 222.986 678.182 222.986H660.164C656.42 222.986 653.378 222.648 651.038 221.972C648.698 221.296 646.878 220.204 645.578 218.696C644.382 217.344 643.55 215.68 643.082 213.704C642.614 211.728 642.38 209.362 642.38 206.606V181.256C642.38 178.188 642.666 175.614 643.238 173.534C643.81 171.454 644.798 169.764 646.202 168.464C647.554 167.216 649.348 166.306 651.584 165.734C653.872 165.162 656.732 164.876 660.164 164.876H678.182C684.214 164.876 688.582 165.89 691.286 167.918C692.95 169.218 694.146 170.96 694.874 173.144C695.602 175.276 695.966 177.98 695.966 181.256V206.606ZM681.614 182.114C681.614 180.45 681.484 179.098 681.224 178.058C680.964 176.966 680.548 176.134 679.976 175.562C679.456 174.938 678.754 174.522 677.87 174.314C677.038 174.054 676.024 173.924 674.828 173.924H663.518C661.23 173.924 659.514 174.548 658.37 175.796C657.226 177.044 656.654 179.15 656.654 182.114V205.748C656.654 207.256 656.758 208.53 656.966 209.57C657.174 210.61 657.538 211.468 658.058 212.144C658.578 212.768 659.28 213.236 660.164 213.548C661.048 213.808 662.166 213.938 663.518 213.938H674.828C677.272 213.938 679.014 213.392 680.054 212.3C681.094 211.156 681.614 208.972 681.614 205.748V182.114ZM760.407 206.606C760.407 209.362 760.147 211.728 759.627 213.704C759.107 215.68 758.249 217.344 757.053 218.696C755.701 220.204 753.855 221.296 751.515 221.972C749.175 222.648 746.211 222.986 742.623 222.986H724.605C720.861 222.986 717.819 222.648 715.479 221.972C713.139 221.296 711.319 220.204 710.019 218.696C708.823 217.344 707.991 215.68 707.523 213.704C707.055 211.728 706.821 209.362 706.821 206.606V181.256C706.821 178.188 707.107 175.614 707.679 173.534C708.251 171.454 709.239 169.764 710.643 168.464C711.995 167.216 713.789 166.306 716.025 165.734C718.313 165.162 721.173 164.876 724.605 164.876H742.623C748.655 164.876 753.023 165.89 755.727 167.918C757.391 169.218 758.587 170.96 759.315 173.144C760.043 175.276 760.407 177.98 760.407 181.256V206.606ZM746.055 182.114C746.055 180.45 745.925 179.098 745.665 178.058C745.405 176.966 744.989 176.134 744.417 175.562C743.897 174.938 743.195 174.522 742.311 174.314C741.479 174.054 740.465 173.924 739.269 173.924H727.959C725.671 173.924 723.955 174.548 722.811 175.796C721.667 177.044 721.095 179.15 721.095 182.114V205.748C721.095 207.256 721.199 208.53 721.407 209.57C721.615 210.61 721.979 211.468 722.499 212.144C723.019 212.768 723.721 213.236 724.605 213.548C725.489 213.808 726.607 213.938 727.959 213.938H739.269C741.713 213.938 743.455 213.392 744.495 212.3C745.535 211.156 746.055 208.972 746.055 205.748V182.114ZM823.367 223.298C817.959 223.038 813.409 222.05 809.717 220.334C806.077 218.618 803.061 216.564 800.669 214.172C798.537 212.092 796.821 209.83 795.521 207.386C794.221 204.942 793.129 202.55 792.245 200.21H785.459V222.908H771.185V164.876H804.881C807.013 164.876 809.067 165.058 811.043 165.422C813.019 165.734 814.787 166.332 816.347 167.216C818.011 168.152 819.311 169.452 820.247 171.116C821.235 172.728 821.729 174.86 821.729 177.512V187.574C821.729 189.862 821.261 191.916 820.325 193.736C819.389 195.556 818.167 196.934 816.659 197.87C815.463 198.598 814.111 199.144 812.603 199.508C811.147 199.872 809.249 200.106 806.909 200.21C807.481 201.406 808.105 202.628 808.781 203.876C809.509 205.124 810.445 206.32 811.589 207.464C812.889 208.816 814.501 210.09 816.425 211.286C818.349 212.43 820.663 213.418 823.367 214.25V223.298ZM807.533 178.994C807.533 177.434 807.013 176.212 805.973 175.328C804.985 174.392 803.139 173.924 800.435 173.924H785.459V191.162H800.435C802.879 191.162 804.673 190.694 805.817 189.758C806.961 188.822 807.533 187.522 807.533 185.858V178.994ZM882.739 209.102C882.739 211.286 882.349 213.236 881.569 214.952C880.789 216.668 879.723 218.124 878.371 219.32C877.071 220.464 875.563 221.348 873.847 221.972C872.131 222.596 870.103 222.908 867.763 222.908H832.819V213.782H861.445C863.837 213.782 865.605 213.34 866.749 212.456C867.945 211.572 868.543 209.986 868.543 207.698V202.238C868.543 200.938 868.101 199.95 867.217 199.274C866.333 198.546 864.903 198.182 862.927 198.182H845.533C843.245 198.182 841.217 197.896 839.449 197.324C837.681 196.752 836.199 195.816 835.003 194.516C834.119 193.528 833.391 192.332 832.819 190.928C832.299 189.472 832.039 187.756 832.039 185.78V179.072C832.039 176.836 832.403 174.834 833.131 173.066C833.859 171.246 834.977 169.712 836.485 168.464C837.889 167.268 839.631 166.358 841.711 165.734C843.791 165.11 846.235 164.798 849.043 164.798H880.945V173.924H853.333C851.201 173.924 849.485 174.47 848.185 175.562C846.937 176.654 846.313 178.136 846.313 180.008V185.156C846.313 186.664 846.781 187.704 847.717 188.276C848.653 188.796 849.927 189.056 851.539 189.056H867.607C869.895 189.056 871.949 189.29 873.769 189.758C875.641 190.226 877.253 190.98 878.605 192.02C881.361 194.204 882.739 197.324 882.739 201.38V209.102ZM946.876 206.606C946.876 209.362 946.616 211.728 946.096 213.704C945.576 215.68 944.718 217.344 943.522 218.696C942.17 220.204 940.324 221.296 937.984 221.972C935.644 222.648 932.68 222.986 929.092 222.986H911.074C907.33 222.986 904.288 222.648 901.948 221.972C899.608 221.296 897.788 220.204 896.488 218.696C895.292 217.344 894.46 215.68 893.992 213.704C893.524 211.728 893.29 209.362 893.29 206.606V181.256C893.29 178.188 893.576 175.614 894.148 173.534C894.72 171.454 895.708 169.764 897.112 168.464C898.464 167.216 900.258 166.306 902.494 165.734C904.782 165.162 907.642 164.876 911.074 164.876H929.092C935.124 164.876 939.492 165.89 942.196 167.918C943.86 169.218 945.056 170.96 945.784 173.144C946.512 175.276 946.876 177.98 946.876 181.256V206.606ZM932.524 182.114C932.524 180.45 932.394 179.098 932.134 178.058C931.874 176.966 931.458 176.134 930.886 175.562C930.366 174.938 929.664 174.522 928.78 174.314C927.948 174.054 926.934 173.924 925.738 173.924H914.428C912.14 173.924 910.424 174.548 909.28 175.796C908.136 177.044 907.564 179.15 907.564 182.114V205.748C907.564 207.256 907.668 208.53 907.876 209.57C908.084 210.61 908.448 211.468 908.968 212.144C909.488 212.768 910.19 213.236 911.074 213.548C911.958 213.808 913.076 213.938 914.428 213.938H925.738C928.182 213.938 929.924 213.392 930.964 212.3C932.004 211.156 932.524 208.972 932.524 205.748V182.114ZM957.731 222.908V164.876H972.005V213.86H1001.57V222.908H957.731ZM1063.8 206.372C1063.8 209.648 1063.44 212.326 1062.71 214.406C1062.03 216.486 1061.02 218.124 1059.67 219.32C1058.16 220.672 1056.26 221.608 1053.97 222.128C1051.69 222.648 1049.01 222.908 1045.94 222.908H1028.08C1024.44 222.908 1021.42 222.57 1019.03 221.894C1016.64 221.166 1014.74 219.97 1013.34 218.306C1011.2 215.81 1010.14 211.832 1010.14 206.372V164.876H1024.57V205.592C1024.57 208.452 1025.06 210.532 1026.05 211.832C1026.62 212.56 1027.35 213.08 1028.23 213.392C1029.17 213.704 1030.26 213.86 1031.51 213.86H1042.59C1043.94 213.86 1045.08 213.678 1046.02 213.314C1047.01 212.95 1047.79 212.274 1048.36 211.286C1049.09 209.986 1049.45 208.088 1049.45 205.592V164.876H1063.8V206.372ZM1105.7 174.002V222.908H1091.5V174.002H1071.85V164.876H1125.43V174.002H1105.7ZM1136.27 222.908V164.876H1150.47V222.908H1136.27ZM1217.9 206.606C1217.9 209.362 1217.64 211.728 1217.12 213.704C1216.6 215.68 1215.74 217.344 1214.54 218.696C1213.19 220.204 1211.34 221.296 1209 221.972C1206.66 222.648 1203.7 222.986 1200.11 222.986H1182.09C1178.35 222.986 1175.31 222.648 1172.97 221.972C1170.63 221.296 1168.81 220.204 1167.51 218.696C1166.31 217.344 1165.48 215.68 1165.01 213.704C1164.54 211.728 1164.31 209.362 1164.31 206.606V181.256C1164.31 178.188 1164.6 175.614 1165.17 173.534C1165.74 171.454 1166.73 169.764 1168.13 168.464C1169.48 167.216 1171.28 166.306 1173.51 165.734C1175.8 165.162 1178.66 164.876 1182.09 164.876H1200.11C1206.14 164.876 1210.51 165.89 1213.22 167.918C1214.88 169.218 1216.08 170.96 1216.8 173.144C1217.53 175.276 1217.9 177.98 1217.9 181.256V206.606ZM1203.54 182.114C1203.54 180.45 1203.41 179.098 1203.15 178.058C1202.89 176.966 1202.48 176.134 1201.91 175.562C1201.39 174.938 1200.68 174.522 1199.8 174.314C1198.97 174.054 1197.95 173.924 1196.76 173.924H1185.45C1183.16 173.924 1181.44 174.548 1180.3 175.796C1179.16 177.044 1178.58 179.15 1178.58 182.114V205.748C1178.58 207.256 1178.69 208.53 1178.9 209.57C1179.1 210.61 1179.47 211.468 1179.99 212.144C1180.51 212.768 1181.21 213.236 1182.09 213.548C1182.98 213.808 1184.1 213.938 1185.45 213.938H1196.76C1199.2 213.938 1200.94 213.392 1201.98 212.3C1203.02 211.156 1203.54 208.972 1203.54 205.748V182.114ZM1266.66 222.986L1242.79 187.262V222.986H1228.75V164.876H1244.43L1268.3 200.522V164.876H1282.34V222.986H1266.66ZM1343.5 209.102C1343.5 211.286 1343.11 213.236 1342.33 214.952C1341.55 216.668 1340.49 218.124 1339.13 219.32C1337.83 220.464 1336.33 221.348 1334.61 221.972C1332.89 222.596 1330.87 222.908 1328.53 222.908H1293.58V213.782H1322.21C1324.6 213.782 1326.37 213.34 1327.51 212.456C1328.71 211.572 1329.31 209.986 1329.31 207.698V202.238C1329.31 200.938 1328.86 199.95 1327.98 199.274C1327.1 198.546 1325.67 198.182 1323.69 198.182H1306.3C1304.01 198.182 1301.98 197.896 1300.21 197.324C1298.44 196.752 1296.96 195.816 1295.77 194.516C1294.88 193.528 1294.15 192.332 1293.58 190.928C1293.06 189.472 1292.8 187.756 1292.8 185.78V179.072C1292.8 176.836 1293.17 174.834 1293.89 173.066C1294.62 171.246 1295.74 169.712 1297.25 168.464C1298.65 167.268 1300.39 166.358 1302.47 165.734C1304.55 165.11 1307 164.798 1309.81 164.798H1341.71V173.924H1314.1C1311.96 173.924 1310.25 174.47 1308.95 175.562C1307.7 176.654 1307.08 178.136 1307.08 180.008V185.156C1307.08 186.664 1307.54 187.704 1308.48 188.276C1309.42 188.796 1310.69 189.056 1312.3 189.056H1328.37C1330.66 189.056 1332.71 189.29 1334.53 189.758C1336.4 190.226 1338.02 190.98 1339.37 192.02C1342.12 194.204 1343.5 197.324 1343.5 201.38V209.102Z" fill="#F7C571"/>
<defs>
<clipPath id="clip0_67_3">
<rect width="384" height="384" fill="white" transform="translate(28)"/>
</clipPath>
</defs>
</svg>
