<svg xmlns="http://www.w3.org/2000/svg" width="1103" height="882" fill="none" xmlns:v="https://vecta.io/nano"><path fill="#0c1c3b" d="M0 0h1103v882H0z"/><g clip-path="url(#A)"><path d="M517.881 381.149l-3.362 2.083c-1.848 1.146-10.422 6.165-19.05 11.155-26.659 15.417-31.59 18.803-34.14 23.438-2.043 3.711-2.548 10.298-2.941 38.319-.503 36.002.402 43.352 6.128 49.756 2.726 3.049 50.416 32.205 52.676 32.205.38 0 .7-23.028.712-51.175s.53-51.973 1.152-52.949c2.471-3.887 10.22-4.945 35.156-4.8 36.356.21 36.278.155 16.56 11.636-24.381 14.195-27.48 16.384-29.044 20.497-.799 2.102-1.434 23.429-1.434 48.167 0 48.355.437 51.037 8.318 51.037 4.144 0 86.988-47.994 92.848-53.79 2.077-2.055 4.369-5.293 5.096-7.195s1.317-19.921 1.317-40.043c0-40.365-.34-42.149-9.337-48.88-2.671-2-9.9-6.488-16.063-9.975l-15.689-8.959-28.389-16.406-25.763-15.299c-1.43-1.164-1.944-20.857-2.241-85.796l-.385-84.288-13.297 7.884c-20.461 12.131-18.828 3.384-18.828 100.836v82.542z" fill="#f2c973"/><path d="M556.729 191.459c.263 0 0 36.955 0 82.121v82.122l12.327 7.278 15.689 9.076 3.362 1.796v-23.749-23.749l-5.215-6.56c-6.644-8.358-6.831-13.866-.727-21.544 5.531-6.961 6.49-10.507 5.634-20.826-.524-6.335-1.666-9.166-5.409-13.429-6.187-7.05-6.077-11.861.487-21.093 4.782-6.724 5.23-8.254 5.224-17.82-.008-14.25-2.594-18.099-17.969-26.745-6.727-3.783-12.494-6.878-12.817-6.878h-.586z" fill="#cd984c"/></g><path d="M102.304 642.986c-3.432 0-6.448-.338-9.048-1.014-2.548-.676-4.55-2.08-6.006-4.212-1.716-2.496-2.574-6.292-2.574-11.388v-24.96c0-3.64.416-6.552 1.248-8.736.884-2.236 2.21-3.952 3.978-5.148 1.508-.988 3.276-1.664 5.304-2.028 2.08-.416 4.498-.624 7.254-.624h34.866v9.048h-31.59c-2.184 0-3.874.728-5.07 2.184-1.144 1.404-1.716 3.432-1.716 6.084v23.478c0 3.12.52 5.278 1.56 6.474 1.092 1.196 2.808 1.794 5.148 1.794h18.252v-13.962h-12.012v-9.048h26.208v32.058h-35.802zm81.13-48.984v48.906h-14.196v-48.906h-19.656v-9.126h53.586v9.126h-19.734zm71.054 48.906l-4.446-14.274H229.84l-4.602 14.274h-15.21l21.06-58.11h17.472l21.138 58.11h-15.21zm-14.43-46.332l-7.332 23.01h14.508l-7.176-23.01zm92.89 29.562c0 2.964-.286 5.46-.858 7.488-.572 1.976-1.404 3.588-2.496 4.836-1.56 1.82-3.588 3.016-6.084 3.588s-5.33.858-8.502.858h-35.646v-58.032h35.49c3.224 0 5.902.286 8.034.858 2.132.52 3.874 1.248 5.226 2.184 1.092.78 1.95 1.664 2.574 2.652.676.988 1.17 2.054 1.482 3.198s.52 2.366.624 3.666c.104 1.248.156 2.522.156 3.822v24.882zm-14.196-24.102c0-2.808-.468-4.862-1.404-6.162s-2.834-1.95-5.694-1.95h-18.018v39.936h18.408c2.132 0 3.77-.676 4.914-2.028 1.196-1.404 1.794-3.562 1.794-6.474v-23.322zm81.988 24.57c0 2.756-.26 5.122-.78 7.098s-1.378 3.64-2.574 4.992c-1.352 1.508-3.198 2.6-5.538 3.276s-5.304 1.014-8.892 1.014h-18.018c-3.744 0-6.786-.338-9.126-1.014s-4.16-1.768-5.46-3.276c-1.196-1.352-2.028-3.016-2.496-4.992s-.702-4.342-.702-7.098v-25.35c0-3.068.286-5.642.858-7.722s1.56-3.77 2.964-5.07c1.352-1.248 3.146-2.158 5.382-2.73 2.288-.572 5.148-.858 8.58-.858h18.018c6.032 0 10.4 1.014 13.104 3.042 1.664 1.3 2.86 3.042 3.588 5.226.728 2.132 1.092 4.836 1.092 8.112v25.35zm-14.352-24.492c0-1.664-.13-3.016-.39-4.056-.26-1.092-.676-1.924-1.248-2.496-.52-.624-1.222-1.04-2.106-1.248-.832-.26-1.846-.39-3.042-.39h-11.31c-2.288 0-4.004.624-5.148 1.872s-1.716 3.354-1.716 6.318v23.634c0 1.508.104 2.782.312 3.822s.572 1.898 1.092 2.574c.52.624 1.222 1.092 2.106 1.404.884.26 2.002.39 3.354.39h11.31c2.444 0 4.186-.546 5.226-1.638 1.04-1.144 1.56-3.328 1.56-6.552v-23.634zm81.913 24.492c0 2.756-.26 5.122-.78 7.098s-1.378 3.64-2.574 4.992c-1.352 1.508-3.198 2.6-5.538 3.276s-5.304 1.014-8.892 1.014h-18.018c-3.744 0-6.786-.338-9.126-1.014s-4.16-1.768-5.46-3.276c-1.196-1.352-2.028-3.016-2.496-4.992s-.702-4.342-.702-7.098v-25.35c0-3.068.286-5.642.858-7.722s1.56-3.77 2.964-5.07c1.352-1.248 3.146-2.158 5.382-2.73 2.288-.572 5.148-.858 8.58-.858h18.018c6.032 0 10.4 1.014 13.104 3.042 1.664 1.3 2.86 3.042 3.588 5.226.728 2.132 1.092 4.836 1.092 8.112v25.35zm-14.352-24.492c0-1.664-.13-3.016-.39-4.056-.26-1.092-.676-1.924-1.248-2.496-.52-.624-1.222-1.04-2.106-1.248-.832-.26-1.846-.39-3.042-.39h-11.31c-2.288 0-4.004.624-5.148 1.872s-1.716 3.354-1.716 6.318v23.634c0 1.508.104 2.782.312 3.822s.572 1.898 1.092 2.574c.52.624 1.222 1.092 2.106 1.404.884.26 2.002.39 3.354.39h11.31c2.444 0 4.186-.546 5.226-1.638 1.04-1.144 1.56-3.328 1.56-6.552v-23.634zm80.432 41.184c-5.408-.26-9.958-1.248-13.65-2.964-3.64-1.716-6.656-3.77-9.048-6.162-2.132-2.08-3.848-4.342-5.148-6.786s-2.392-4.836-3.276-7.176h-6.786v22.698h-14.274v-58.032h33.696c2.132 0 4.186.182 6.162.546 1.976.312 3.744.91 5.304 1.794a10.04 10.04 0 0 1 3.9 3.9c.988 1.612 1.482 3.744 1.482 6.396v10.062c0 2.288-.468 4.342-1.404 6.162s-2.158 3.198-3.666 4.134c-1.196.728-2.548 1.274-4.056 1.638-1.456.364-3.354.598-5.694.702.572 1.196 1.196 2.418 1.872 3.666.728 1.248 1.664 2.444 2.808 3.588 1.3 1.352 2.912 2.626 4.836 3.822 1.924 1.144 4.238 2.132 6.942 2.964v9.048zm-15.834-44.304c0-1.56-.52-2.782-1.56-3.666-.988-.936-2.834-1.404-5.538-1.404h-14.976v17.238h14.976c2.444 0 4.238-.468 5.382-1.404s1.716-2.236 1.716-3.9v-6.864zm78.326 30.108c0 2.184-.39 4.134-1.17 5.85a12.85 12.85 0 0 1-3.198 4.368c-1.3 1.144-2.808 2.028-4.524 2.652s-3.744.936-6.084.936h-34.944v-9.126h28.626c2.392 0 4.16-.442 5.304-1.326 1.196-.884 1.794-2.47 1.794-4.758v-5.46c0-1.3-.442-2.288-1.326-2.964-.884-.728-2.314-1.092-4.29-1.092h-17.394c-2.288 0-4.316-.286-6.084-.858s-3.25-1.508-4.446-2.808c-.884-.988-1.612-2.184-2.184-3.588-.52-1.456-.78-3.172-.78-5.148v-6.708c0-2.236.364-4.238 1.092-6.006.728-1.82 1.846-3.354 3.354-4.602 1.404-1.196 3.146-2.106 5.226-2.73s4.524-.936 7.332-.936h31.902v9.126h-27.612c-2.132 0-3.848.546-5.148 1.638-1.248 1.092-1.872 2.574-1.872 4.446v5.148c0 1.508.468 2.548 1.404 3.12.936.52 2.21.78 3.822.78h16.068c2.288 0 4.342.234 6.162.702 1.872.468 3.484 1.222 4.836 2.262 2.756 2.184 4.134 5.304 4.134 9.36v7.722zm67.257-2.496c0 2.756-.26 5.122-.78 7.098s-1.378 3.64-2.574 4.992c-1.352 1.508-3.198 2.6-5.538 3.276s-5.304 1.014-8.892 1.014h-18.018c-3.744 0-6.786-.338-9.126-1.014s-4.16-1.768-5.46-3.276c-1.196-1.352-2.028-3.016-2.496-4.992s-.702-4.342-.702-7.098v-25.35c0-3.068.286-5.642.858-7.722s1.56-3.77 2.964-5.07c1.352-1.248 3.146-2.158 5.382-2.73 2.288-.572 5.148-.858 8.58-.858h18.018c6.032 0 10.4 1.014 13.104 3.042 1.664 1.3 2.86 3.042 3.588 5.226.728 2.132 1.092 4.836 1.092 8.112v25.35zm-14.352-24.492c0-1.664-.13-3.016-.39-4.056-.26-1.092-.676-1.924-1.248-2.496-.52-.624-1.222-1.04-2.106-1.248-.832-.26-1.846-.39-3.042-.39h-11.31c-2.288 0-4.004.624-5.148 1.872s-1.716 3.354-1.716 6.318v23.634c0 1.508.104 2.782.312 3.822s.572 1.898 1.092 2.574c.52.624 1.222 1.092 2.106 1.404.884.26 2.002.39 3.354.39h11.31c2.444 0 4.186-.546 5.226-1.638 1.04-1.144 1.56-3.328 1.56-6.552v-23.634zm28.327 40.794v-58.032h14.274v48.984h29.562v9.048h-43.836zm109.191-16.536c0 3.276-.364 5.954-1.092 8.034-.676 2.08-1.69 3.718-3.042 4.914-1.508 1.352-3.406 2.288-5.694 2.808s-4.966.78-8.034.78h-17.862c-3.64 0-6.656-.338-9.048-1.014-2.392-.728-4.29-1.924-5.694-3.588-2.132-2.496-3.198-6.474-3.198-11.934v-41.496h14.43v40.716c0 2.86.494 4.94 1.482 6.24.572.728 1.3 1.248 2.184 1.56.936.312 2.028.468 3.276.468h11.076c1.352 0 2.496-.182 3.432-.546.988-.364 1.768-1.04 2.34-2.028.728-1.3 1.092-3.198 1.092-5.694v-40.716h14.352v41.496zm45.015-32.37v48.906h-14.196v-48.906h-19.656v-9.126h53.586v9.126h-19.734zm33.693 48.906v-58.032H880.2v58.032h-14.196zm84.745-16.302c0 2.756-.26 5.122-.78 7.098s-1.378 3.64-2.574 4.992c-1.352 1.508-3.198 2.6-5.538 3.276s-5.304 1.014-8.892 1.014h-18.018c-3.744 0-6.786-.338-9.126-1.014s-4.16-1.768-5.46-3.276c-1.196-1.352-2.028-3.016-2.496-4.992s-.702-4.342-.702-7.098v-25.35c0-3.068.286-5.642.858-7.722s1.56-3.77 2.964-5.07c1.352-1.248 3.146-2.158 5.382-2.73 2.288-.572 5.148-.858 8.58-.858h18.018c6.032 0 10.4 1.014 13.104 3.042 1.664 1.3 2.86 3.042 3.588 5.226.728 2.132 1.092 4.836 1.092 8.112v25.35zm-14.352-24.492c0-1.664-.13-3.016-.39-4.056-.26-1.092-.676-1.924-1.248-2.496-.52-.624-1.222-1.04-2.106-1.248-.832-.26-1.846-.39-3.042-.39h-11.31c-2.288 0-4.004.624-5.148 1.872s-1.716 3.354-1.716 6.318v23.634c0 1.508.104 2.782.312 3.822s.572 1.898 1.092 2.574c.52.624 1.222 1.092 2.106 1.404.884.26 2.002.39 3.354.39h11.31c2.444 0 4.186-.546 5.226-1.638 1.04-1.144 1.56-3.328 1.56-6.552v-23.634zm66.233 40.872l-23.865-35.724v35.724h-14.04v-58.11h15.678l23.867 35.646v-35.646h14.04v58.11h-15.68z" fill="#f7c571"/><path d="M54.505 690.204l-4.909-11.324V694h-1.538v-18h1.931l4.942 11.291L59.872 676h1.931v18h-1.538v-15.12l-4.909 11.324h-.851zM86.647 676l4.549 18h-1.604l-1.178-4.647h-5.956L81.279 694h-1.604l4.549-18h2.422zm-1.211 1.702l-2.651 10.276h5.302l-2.651-10.276zm25.195 6.709l7.331-8.411h2.062l-7.822 8.902 7.92 9.098h-2.029l-7.462-8.542V694h-1.57v-18h1.57v8.411zM137.488 676h1.538v18h-1.538v-18zm30.448 0h1.538v18h-1.407l-8.313-14.105V694h-1.538v-18h1.047l8.673 14.727V676zm26.144 1.375c-.873 0-1.582.087-2.127.261-.546.153-.982.404-1.309.753-.306.349-.513.796-.622 1.342s-.164 1.2-.164 1.964v7.167c0 .567.055 1.091.164 1.571.131.48.349.894.654 1.243.328.349.764.622 1.309.819s1.244.294 2.095.294c.829 0 1.505-.109 2.029-.327.546-.24.971-.546 1.276-.917a3.08 3.08 0 0 0 .655-1.341c.131-.502.196-1.037.196-1.604v-2.324h-1.898v-1.374h3.437V694h-.851l-.426-1.669c-.611.742-1.32 1.233-2.127 1.473-.786.24-1.549.36-2.291.36a9.68 9.68 0 0 1-2.062-.229c-.676-.153-1.287-.404-1.833-.753s-.992-.807-1.341-1.375c-.349-.589-.524-1.298-.524-2.127v-8.476c0-1.091.153-1.986.458-2.684s.72-1.244 1.244-1.636a4.67 4.67 0 0 1 1.833-.819 10.44 10.44 0 0 1 2.225-.229 11.91 11.91 0 0 1 2.258.197c.698.109 1.298.327 1.8.654.502.306.895.731 1.178 1.277s.426 1.243.426 2.094h-1.506c-.109-1.113-.491-1.833-1.145-2.16-.655-.349-1.658-.523-3.011-.523zm55.461-.131h-.425-.72l-1.113-.033-1.734.065a6.92 6.92 0 0 0-1.768.36c-.545.197-1.003.491-1.374.884-.371.371-.557.884-.557 1.538 0 .458.208.927.622 1.407.415.459.938.939 1.571 1.44l2.029 1.571c.742.524 1.429 1.069 2.062 1.637.633.545 1.156 1.123 1.571 1.734s.622 1.233.622 1.866c0 1.549-.491 2.683-1.473 3.403-.982.699-2.324 1.048-4.025 1.048a11.54 11.54 0 0 1-1.506-.099l-1.374-.196c-.48-.087-.917-.218-1.309-.393v-1.243c.545.152 1.178.283 1.898.392.742.11 1.462.164 2.16.164.632 0 1.2-.044 1.702-.131.501-.109.927-.283 1.276-.523a2.12 2.12 0 0 0 .818-.982c.196-.415.295-.938.295-1.571 0-.502-.208-.993-.622-1.473-.415-.502-.938-.993-1.571-1.473l-2.062-1.472-2.029-1.571c-.633-.546-1.156-1.113-1.571-1.702-.414-.611-.622-1.255-.622-1.931a4.56 4.56 0 0 1 .229-1.375 3.35 3.35 0 0 1 .884-1.341c.415-.415.982-.753 1.702-1.015s1.625-.393 2.716-.393l1.604.033 2.094.098v1.277zm24.66 16.92c-1.636 0-2.934-.393-3.894-1.179-.96-.807-1.44-2.083-1.44-3.829V676h1.538v12.895c0 1.352.273 2.345.818 2.978.546.611 1.538.916 2.978.916s2.433-.305 2.979-.916c.545-.633.818-1.626.818-2.978V676h1.538v13.156c0 1.746-.48 3.022-1.44 3.829-.96.786-2.258 1.179-3.895 1.179zm35.005-11.88c0 1.374-.273 2.443-.818 3.207s-1.222 1.309-2.029 1.636l2.847 6.873h-1.669l-2.651-6.513c-.109.022-.229.033-.36.033h-.36-3.927V694H298.7v-18h5.826c.611 0 1.2.098 1.767.295s1.069.512 1.506.949c.436.414.774.96 1.014 1.636.262.655.393 1.451.393 2.389v1.015zm-1.538-1.048c0-1.112-.284-2.029-.851-2.749-.567-.742-1.56-1.112-2.978-1.112h-3.6v8.77h3.6c.72 0 1.32-.098 1.8-.294s.872-.469 1.178-.818.523-.764.654-1.244.197-.993.197-1.538v-1.015zm21.279-3.861v7.101h5.335v1.375h-5.335v6.774h6.48V694h-8.018v-18h8.018v1.375h-6.48zM379.252 694v-16.625h-3.764V676h9.131v1.375h-3.829V694h-1.538zm33.367 0v-8.116h-7.952V694h-1.538v-18h1.538v8.509h7.952V676h1.539v18h-1.539zm22.268-16.625v7.101h5.335v1.375h-5.335v6.774h6.48V694h-8.018v-18h8.018v1.375h-6.48zm48.766 7.036l7.331-8.411h2.062l-7.822 8.902 7.92 9.098h-2.029l-7.462-8.542V694h-1.571v-18h1.571v8.411zm28.395-7.036v7.101h5.335v1.375h-5.335v6.774h6.48V694h-8.018v-18h8.018v1.375h-6.48zM544.401 676h1.735l-4.484 11.291V694h-1.571v-6.775L535.565 676h1.702l3.567 8.967 3.567-8.967zm27.53 1.244h-.425-.72l-1.113-.033-1.735.065a6.91 6.91 0 0 0-1.767.36c-.545.197-1.003.491-1.374.884-.371.371-.557.884-.557 1.538 0 .458.208.927.622 1.407.415.459.938.939 1.571 1.44l2.029 1.571c.742.524 1.429 1.069 2.062 1.637.633.545 1.156 1.123 1.571 1.734s.622 1.233.622 1.866c0 1.549-.491 2.683-1.473 3.403-.982.699-2.324 1.048-4.026 1.048a11.54 11.54 0 0 1-1.505-.099l-1.375-.196a5.71 5.71 0 0 1-1.309-.393v-1.243c.546.152 1.179.283 1.899.392a14.7 14.7 0 0 0 2.16.164 10.01 10.01 0 0 0 1.701-.131c.502-.109.928-.283 1.277-.523.371-.24.643-.568.818-.982.196-.415.294-.938.294-1.571 0-.502-.207-.993-.621-1.473-.415-.502-.939-.993-1.571-1.473l-2.062-1.472-2.029-1.571a9.43 9.43 0 0 1-1.571-1.702c-.415-.611-.622-1.255-.622-1.931 0-.436.076-.895.229-1.375a3.35 3.35 0 0 1 .884-1.341c.414-.415.982-.753 1.702-1.015s1.625-.393 2.716-.393l1.604.033 2.094.098v1.277zM618.947 676l4.549 18h-1.603l-1.178-4.647h-5.957L613.58 694h-1.604l4.55-18h2.421zm-1.211 1.702l-2.65 10.276h5.301l-2.651-10.276zm34.131 4.582c0 1.374-.273 2.443-.818 3.207s-1.222 1.309-2.029 1.636l2.847 6.873h-1.669l-2.651-6.513c-.109.022-.229.033-.36.033h-.36-3.927V694h-1.539v-18h5.826c.611 0 1.2.098 1.767.295s1.069.512 1.506.949c.436.414.774.96 1.014 1.636.262.655.393 1.451.393 2.389v1.015zm-1.538-1.048c0-1.112-.284-2.029-.851-2.749-.568-.742-1.56-1.112-2.978-1.112h-3.6v8.77h3.6c.72 0 1.32-.098 1.8-.294s.872-.469 1.178-.818.523-.764.654-1.244.197-.993.197-1.538v-1.015zm21.279-3.861v7.101h5.335v1.375h-5.335v6.774h6.48V694h-8.018v-18h8.018v1.375h-6.48zM718.804 676h1.538v18h-1.538v-18zm30.448 0h1.538v18h-1.407l-8.313-14.105V694h-1.538v-18h1.047l8.673 14.727V676zm50.594 0h1.735l-4.484 11.291V694h-1.571v-6.775L791.01 676h1.702l3.567 8.967 3.567-8.967zm23.963 16.789c1.462-.022 2.466-.294 3.011-.818.567-.524.851-1.375.851-2.553v-9.033c0-1.134-.284-1.941-.851-2.421-.567-.502-1.582-.753-3.044-.753-1.418 0-2.4.24-2.945.72s-.818 1.298-.818 2.454v9.033c0 1.178.273 2.029.818 2.553.567.524 1.56.796 2.978.818zm.033 1.375c-.676 0-1.342-.066-1.996-.197a5.38 5.38 0 0 1-1.702-.72c-.502-.349-.906-.818-1.211-1.407-.306-.611-.458-1.375-.458-2.291v-9.556c0-1.309.436-2.324 1.309-3.044.894-.742 2.247-1.113 4.058-1.113s3.153.371 4.025 1.113c.895.72 1.342 1.735 1.342 3.044v9.556c0 .916-.153 1.68-.458 2.291-.305.589-.709 1.058-1.211 1.407-.502.328-1.08.568-1.734.72a9.67 9.67 0 0 1-1.964.197zm29.566 0c-1.637 0-2.935-.393-3.895-1.179-.96-.807-1.44-2.083-1.44-3.829V676h1.538v12.895c0 1.352.273 2.345.818 2.978.546.611 1.539.916 2.979.916s2.432-.305 2.978-.916c.545-.633.818-1.626.818-2.978V676h1.538v13.156c0 1.746-.48 3.022-1.44 3.829-.96.786-2.258 1.179-3.894 1.179zm35.004-11.88c0 1.374-.273 2.443-.818 3.207s-1.222 1.309-2.029 1.636l2.847 6.873h-1.669l-2.651-6.513c-.109.022-.229.033-.36.033h-.36-3.927V694h-1.538v-18h5.825c.611 0 1.2.098 1.767.295a3.91 3.91 0 0 1 1.506.949c.436.414.774.96 1.014 1.636.262.655.393 1.451.393 2.389v1.015zm-1.538-1.048c0-1.112-.284-2.029-.851-2.749-.567-.742-1.56-1.112-2.978-1.112h-3.6v8.77h3.6c.72 0 1.32-.098 1.8-.294a3.08 3.08 0 0 0 1.178-.818c.305-.349.524-.764.655-1.244s.196-.993.196-1.538v-1.015zM938.135 694v-8.116h-7.953V694h-1.538v-18h1.538v8.509h7.953V676h1.538v18h-1.538zm26.391-18l4.549 18h-1.603l-1.178-4.647h-5.957L959.159 694h-1.604l4.549-18h2.422zm-1.211 1.702l-2.651 10.276h5.302l-2.651-10.276zM996.66 676h1.538v18h-1.407l-8.313-14.105V694h-1.538v-18h1.048l8.672 14.727V676zm26.24 0c.64 0 1.22.109 1.77.327.57.197 1.06.48 1.47.851.44.349.78.786 1.02 1.309s.36 1.091.36 1.702v9c0 1.462-.36 2.629-1.08 3.502s-1.69 1.309-2.92 1.309h-6.15v-18h5.53zm3.08 4.844c0-1.113-.28-1.964-.85-2.553-.55-.611-1.53-.916-2.95-.916h-3.27v15.25h3.7c.72 0 1.3-.087 1.73-.261.46-.197.81-.459 1.05-.786.24-.349.39-.753.46-1.211a8.35 8.35 0 0 0 .13-1.538v-7.985zm28.82-3.6h-.43-.72l-1.11-.033-1.74.065c-.61.044-1.2.164-1.76.36-.55.197-1.01.491-1.38.884-.37.371-.56.884-.56 1.538 0 .458.21.927.63 1.407.41.459.93.939 1.57 1.44l2.03 1.571c.74.524 1.43 1.069 2.06 1.637a9.15 9.15 0 0 1 1.57 1.734c.41.611.62 1.233.62 1.866 0 1.549-.49 2.683-1.47 3.403-.98.699-2.33 1.048-4.03 1.048a11.45 11.45 0 0 1-1.5-.099l-1.38-.196c-.48-.087-.91-.218-1.31-.393v-1.243a16.36 16.36 0 0 0 1.9.392 14.68 14.68 0 0 0 2.16.164c.63 0 1.2-.044 1.7-.131.51-.109.93-.283 1.28-.523.37-.24.64-.568.82-.982.19-.415.29-.938.29-1.571 0-.502-.2-.993-.62-1.473-.41-.502-.94-.993-1.57-1.473l-2.06-1.472-2.03-1.571c-.63-.546-1.16-1.113-1.57-1.702-.42-.611-.62-1.255-.62-1.931 0-.436.07-.895.23-1.375a3.24 3.24 0 0 1 .88-1.341c.41-.415.98-.753 1.7-1.015s1.63-.393 2.72-.393l1.6.033 2.1.098v1.277z" fill="#f6c577"/><defs><clipPath id="A"><path fill="#fff" transform="translate(359.5 181)" d="M0 0h384v384H0z"/></clipPath></defs></svg>